<?xml version="1.0" encoding="utf-8"?>
<!-- Generator: Adobe Illustrator 22.1.0, SVG Export Plug-In . SVG Version: 6.00 Build 0)  -->
<svg version="1.1" id="Capa_1" xmlns="http://www.w3.org/2000/svg" xmlns:xlink="http://www.w3.org/1999/xlink" x="0px" y="0px"
	 width="612.8px" height="612.8px" viewBox="0 0 612.8 612.8" style="enable-background:new 0 0 612.8 612.8;" xml:space="preserve"
	>
<style type="text/css">
	.st0{fill:#FFFFFF;}
	.st1{fill:none;stroke:#FFFFFF;stroke-width:0.5;stroke-miterlimit:10;}
</style>
<title>logoheaderanap</title>
<path class="st0" d="M84.9,370.8l-5.6-7.5h-5.5v7.5h-2.2v-19.2H80c4.2,0,6.9,2.3,6.9,5.7c0,3.2-2.2,5.1-5.2,5.6l5.9,7.8L84.9,370.8z
	 M79.8,353.6h-5.9v7.8h5.9c2.9,0,4.9-1.5,4.9-4S82.9,353.6,79.8,353.6z"/>
<path class="st0" d="M105.4,369.3c1.7,0,3.3-0.7,4.5-2l1.3,1.2c-1.4,1.7-3.6,2.7-5.8,2.7c-3.9,0-7.1-3.1-7.1-7c0-0.1,0-0.3,0-0.4
	c0-4.1,2.9-7.4,6.8-7.4c4.2,0,6.6,3.4,6.6,7.5c0,0.2,0,0.4,0,0.7h-11.3C100.5,367.2,102.7,369.3,105.4,369.3z M109.5,362.9
	c-0.2-2.6-1.7-4.8-4.5-4.8c-2.5,0-4.3,2.1-4.6,4.8H109.5z"/>
<path class="st0" d="M124.4,359.3l-0.6-1.7c1.6-0.8,3.4-1.2,5.2-1.2c3.9,0,6,2,6,5.7v8.7h-2v-2.1c-1.2,1.6-3.1,2.5-5.1,2.4
	c-2.6,0-5.3-1.5-5.3-4.4s2.5-4.6,6.1-4.6c1.5,0,2.9,0.2,4.4,0.6v-0.5c0-2.5-1.6-3.9-4.2-3.9C127.2,358.3,125.7,358.7,124.4,359.3z
	 M124.6,366.6c0,1.8,1.7,2.9,3.6,2.9c2.6,0,4.7-1.6,4.7-3.8v-1.4c-1.4-0.4-2.8-0.6-4.2-0.6C126.1,363.7,124.6,364.8,124.6,366.6
	L124.6,366.6z"/>
<path class="st0" d="M147.8,370.8v-20h2.1v20H147.8z"/>
<path class="st0" d="M193.8,353.6h-11.7v6.5h10.5v2h-10.5v6.7h11.9v2h-14v-19.2h13.9V353.6z"/>
<path class="st0" d="M210.8,371.1c-2.1,0-4.2-0.8-5.9-2.1l1.1-1.5c1.4,1.1,3.1,1.8,4.9,1.8c1.7,0,2.9-0.9,2.9-2.2V367
	c0-1.4-1.7-2-3.5-2.5c-2.2-0.6-4.7-1.4-4.7-4v-0.1c0-2.4,2-4.1,4.8-4.1c1.8,0,3.6,0.6,5.1,1.6l-1,1.6c-1.2-0.8-2.7-1.3-4.2-1.4
	c-1.7,0-2.7,0.9-2.7,2.1v0.1c0,1.3,1.8,1.9,3.6,2.4c2.2,0.7,4.6,1.5,4.6,4.1v0.1C215.9,369.5,213.6,371.1,210.8,371.1z"/>
<path class="st0" d="M230.6,366.8c-0.2,1.1,0.6,2.2,1.8,2.4c0.2,0,0.4,0,0.6,0c0.7,0,1.4-0.2,2.1-0.5v1.8c-0.8,0.4-1.7,0.6-2.6,0.6
	c-2.3,0-4-1.1-4-4v-8.6h-2v-1.8h2v-4.3h2.1v4.3h4.5v1.9h-4.5L230.6,366.8z"/>
<path class="st0" d="M247.9,359.3l-0.6-1.7c1.6-0.8,3.4-1.2,5.2-1.2c3.9,0,6,2,6,5.7v8.7h-2v-2.1c-1.2,1.6-3.1,2.5-5.1,2.4
	c-2.6,0-5.3-1.5-5.3-4.4s2.5-4.6,6.1-4.6c1.5,0,2.9,0.2,4.4,0.6v-0.5c0-2.5-1.6-3.9-4.2-3.9C250.7,358.3,249.2,358.7,247.9,359.3z
	 M248.1,366.6c0,1.8,1.6,2.9,3.6,2.9c2.6,0,4.7-1.6,4.7-3.8v-1.4c-1.4-0.4-2.8-0.6-4.2-0.6C249.6,363.7,248.1,364.8,248.1,366.6
	L248.1,366.6z"/>
<path class="st0" d="M273.8,366.8c-0.2,1.1,0.6,2.2,1.8,2.4c0.2,0,0.4,0,0.6,0c0.7,0,1.4-0.2,2.1-0.5v1.8c-0.8,0.4-1.7,0.6-2.5,0.6
	c-2.3,0-4-1.1-4-4v-8.6h-2v-1.8h2v-4.3h2.1v4.3h4.5v1.9h-4.5L273.8,366.8z"/>
<path class="st0" d="M296.1,369.3c1.7,0,3.3-0.7,4.5-2l1.3,1.2c-1.4,1.7-3.6,2.7-5.8,2.7c-3.9,0-7.1-3.1-7.1-7c0-0.1,0-0.3,0-0.4
	c0-4.1,2.9-7.4,6.8-7.4c4.2,0,6.6,3.4,6.6,7.5c0,0.2,0,0.4,0,0.7h-11.3C291.2,367.2,293.4,369.3,296.1,369.3z M300.3,362.9
	c-0.2-2.6-1.7-4.8-4.5-4.8c-2.5,0-4.3,2.1-4.6,4.8H300.3z"/>
<path class="st0" d="M338,364h-4.7v6.8h-2.2v-19.2h7.2c4.3,0,7.2,2.3,7.2,6.1C345.5,361.9,342,364,338,364z M338.1,353.6h-4.9v8.5
	h4.8c3.2,0,5.3-1.7,5.3-4.2C343.3,355,341.2,353.6,338.1,353.6L338.1,353.6z"/>
<path class="st0" d="M359.4,370.8h-2.1v-14.1h2.1v3.7c0.9-2.4,3.2-4,5.8-4v2.3H365c-3.1,0-5.6,2.2-5.6,6.5V370.8z"/>
<path class="st0" d="M382.5,371.1c-4,0-7.3-3.2-7.4-7.2c0-0.1,0-0.1,0-0.2c0-4.1,3.3-7.4,7.4-7.4c4.1,0,7.4,3.3,7.4,7.4
	S386.6,371.1,382.5,371.1C382.5,371.1,382.5,371.1,382.5,371.1z M382.5,358.2c-2.9,0-5.2,2.4-5.2,5.2c0,0.1,0,0.2,0,0.3
	c-0.1,2.9,2.2,5.4,5.1,5.5c0,0,0.1,0,0.1,0c2.9,0,5.2-2.3,5.2-5.2c0-0.1,0-0.2,0-0.3c0.1-3-2.2-5.5-5.1-5.6
	C382.6,358.2,382.5,358.2,382.5,358.2z"/>
<path class="st0" d="M409.5,371.1c-2.2,0-4.3-1.1-5.4-3v7.1H402v-18.5h2.1v2.9c1.1-1.9,3.2-3.1,5.4-3.2c3.4,0,6.8,2.7,6.8,7.4
	S412.9,371.1,409.5,371.1z M409.1,358.2c-3,0.2-5.4,2.8-5.2,5.8c0.2,2.8,2.4,5,5.2,5.2c2.7,0,5-2,5-5.5S411.8,358.2,409.1,358.2z"/>
<path class="st0" d="M434.6,369.3c1.7,0,3.3-0.7,4.5-2l1.3,1.2c-1.4,1.7-3.6,2.7-5.8,2.7c-3.9,0-7.1-3.1-7.1-7c0-0.1,0-0.3,0-0.4
	c0-4.1,2.9-7.4,6.8-7.4c4.2,0,6.6,3.4,6.6,7.5c0,0.2,0,0.4,0,0.7h-11.3C429.8,367.2,432,369.3,434.6,369.3z M438.8,362.9
	c-0.2-2.6-1.7-4.8-4.5-4.8c-2.5,0-4.3,2.1-4.6,4.8H438.8z"/>
<path class="st0" d="M455,370.8h-2.1v-14.1h2.1v3.7c0.9-2.4,3.2-4,5.8-4v2.3h-0.2c-3.1,0-5.6,2.2-5.6,6.5L455,370.8z"/>
<path class="st0" d="M475,366.8c-0.2,1.1,0.6,2.2,1.8,2.4c0.2,0,0.4,0,0.6,0c0.7,0,1.4-0.2,2.1-0.5v1.8c-0.8,0.4-1.7,0.6-2.5,0.6
	c-2.3,0-4-1.1-4-4v-8.6h-2v-1.8h2v-4.3h2.1v4.3h4.5v1.9H475L475,366.8z"/>
<path class="st0" d="M491.5,353.5v-2.3h2.4v2.3H491.5z M491.7,370.8v-14.1h2.1v14.2L491.7,370.8z"/>
<path class="st0" d="M513.2,369.3c1.7,0,3.3-0.7,4.5-2l1.3,1.2c-1.4,1.7-3.6,2.7-5.8,2.7c-3.9,0-7.1-3.1-7.1-7c0-0.1,0-0.3,0-0.4
	c0-4.1,2.9-7.4,6.8-7.4c4.2,0,6.6,3.4,6.6,7.5c0,0.2,0,0.4,0,0.7h-11.3C508.3,367.2,510.5,369.3,513.2,369.3z M517.3,362.9
	c-0.2-2.6-1.7-4.8-4.5-4.8c-2.5,0-4.3,2.1-4.6,4.8H517.3z"/>
<path class="st0" d="M536,371.1c-2.1,0-4.2-0.8-5.9-2.1l1.1-1.5c1.4,1.1,3.1,1.8,4.9,1.8c1.7,0,2.9-0.9,2.9-2.2V367
	c0-1.4-1.7-2-3.5-2.5c-2.2-0.6-4.7-1.4-4.7-4v-0.1c0-2.4,2-4.1,4.8-4.1c1.8,0,3.6,0.6,5.1,1.6l-1,1.6c-1.2-0.8-2.7-1.3-4.2-1.4
	c-1.7,0-2.7,0.9-2.7,2.1v0.1c0,1.3,1.8,1.9,3.7,2.4c2.2,0.7,4.5,1.5,4.5,4.1v0.1C541.1,369.5,538.9,371.1,536,371.1z"/>
<path class="st0" d="M201.7,399.4c0.1-0.1,0.1-0.3,0-0.5c-0.1-0.1-0.2-0.2-0.3-0.2c-0.1-0.1-0.3-0.1-0.5-0.1l-0.6-0.1
	c-0.1,0-0.2-0.1-0.2-0.1c-0.1-0.1-0.1-0.2-0.1-0.3c0-0.1,0-0.1,0-0.2c0-0.1,0-0.1,0-0.2h5.3c0.7,0,1.3,0.1,2,0.2
	c0.5,0.1,0.9,0.4,1.4,0.7c0.3,0.3,0.6,0.6,0.8,1c0.2,0.4,0.2,0.8,0.2,1.2c0,0.9-0.3,1.7-0.9,2.4c-0.7,0.8-1.5,1.4-2.4,1.8
	c0.4,0.1,0.8,0.2,1.2,0.3c0.4,0.1,0.8,0.3,1.1,0.6c0.3,0.2,0.6,0.6,0.8,0.9c0.2,0.4,0.3,0.9,0.3,1.3c0,0.8-0.2,1.5-0.5,2.2
	c-0.4,0.6-0.8,1.2-1.4,1.7c-0.6,0.5-1.3,0.8-2.1,1.1c-0.8,0.3-1.7,0.4-2.5,0.4h-3.2c-0.3,0-0.7,0-1.1,0s-0.9,0.1-1.3,0.1
	c0-0.1,0-0.1,0-0.2c0-0.1,0-0.1,0-0.2c0-0.1,0-0.2,0.1-0.2c0.1-0.1,0.1-0.1,0.2-0.1c0.9-0.1,1.4-0.5,1.6-1.1L201.7,399.4z
	 M201.3,411.9c-0.1,0.2,0,0.4,0.1,0.5c0.2,0.1,0.4,0.2,0.6,0.1h0.4c0.7,0,1.3-0.1,2-0.2c0.6-0.1,1.1-0.3,1.6-0.6
	c0.5-0.3,0.8-0.7,1.1-1.2c0.3-0.6,0.4-1.3,0.4-1.9c0-0.8-0.3-1.6-1-2.1c-0.9-0.6-1.9-0.8-3-0.7h-0.8L201.3,411.9z M202.7,404.7
	c1.3,0.1,2.5-0.2,3.5-1c0.8-0.8,1.1-1.8,1.1-2.9c0-0.6-0.2-1.2-0.7-1.7c-0.7-0.5-1.5-0.7-2.3-0.6h-0.5L202.7,404.7z"/>
<path class="st0" d="M214.4,418.6c0.7,0,1.4-0.3,1.9-0.8c0.6-0.7,1-1.5,1.1-2.4l1.3-6.1h-0.1c-0.6,1.3-1.5,2.5-2.6,3.5
	c-0.7,0.6-1.6,1-2.5,1c-0.4,0-0.9-0.1-1.2-0.3c-0.3-0.3-0.5-0.7-0.4-1.1c0-0.2,0-0.5,0-0.7c0-0.3,0.1-0.5,0.1-0.8l1.2-5.6
	c0-0.1,0-0.2,0-0.2c0-0.1,0-0.2,0-0.2c0-0.2-0.1-0.3-0.2-0.3c-0.1,0-0.2,0-0.3,0.1l-0.4,0.2l-0.4,0.2c-0.1,0-0.2,0.1-0.3,0.1
	c-0.1,0-0.2-0.1-0.2-0.1c-0.1-0.1-0.1-0.2-0.1-0.3l1-0.6c0.4-0.2,0.7-0.4,1.1-0.6l1-0.4c0.2-0.1,0.4-0.2,0.6-0.2
	c0.3,0,0.5,0.2,0.5,0.5c0,0.1,0,0.3,0,0.4l-1.4,6.7c-0.1,0.4-0.1,0.7-0.1,1.1c0,0.5,0.2,0.7,0.7,0.7c0.4,0,0.8-0.2,1.2-0.4
	c0.4-0.3,0.8-0.7,1.2-1.1c0.4-0.5,0.8-1,1.1-1.6c0.3-0.6,0.6-1.2,0.9-1.8c0.2-0.6,0.4-1.2,0.6-1.8c0.1-0.5,0.2-1,0.2-1.6
	c0-0.2,0-0.5-0.1-0.7c0.7-0.1,1.3-0.2,2-0.3c0.1,0.1,0.1,0.2,0.1,0.3c0,0,0,0.1,0,0.2s0,0.2,0,0.2l-2.2,11c-0.1,0.8-0.4,1.6-0.9,2.3
	c-0.4,0.6-0.8,1.1-1.4,1.6c-0.5,0.4-1.1,0.7-1.7,0.9c-0.5,0.2-1.1,0.3-1.7,0.3c-0.9,0-1.9-0.1-2.7-0.5c0.1-0.3,0.2-0.7,0.3-1
	c0.1-0.3,0.1-0.7,0.2-1l0.4-0.1c0.2,0.5,0.6,0.9,1,1.2C213.4,418.4,213.8,418.6,214.4,418.6z"/>
<path class="st0" d="M229.8,411.7c-0.1,0.2-0.2,0.4-0.2,0.6c0,0.2,0.1,0.4,0.3,0.4c0.3,0.1,0.7,0.2,1,0.2c0.3,0,0.4,0.2,0.4,0.4
	c0,0.1,0,0.2,0,0.4l-1.4-0.1c-0.4,0-0.8,0-1.3,0h-1c-0.4,0-0.8,0.1-1.1,0.1c0-0.1,0-0.1,0-0.2c0-0.1,0-0.1,0-0.2
	c0-0.2,0.1-0.3,0.4-0.4c0.7,0,1.3-0.4,1.6-0.9l7.7-14.3c0.1-0.1,0.2-0.2,0.4-0.2h0.1h0.1l2.6,14.4c0,0.3,0.2,0.5,0.4,0.6
	c0.3,0.2,0.6,0.3,0.9,0.3c0.1,0,0.3,0.1,0.4,0.1c0.1,0.1,0.1,0.1,0.1,0.2c0,0.1,0,0.2,0,0.4l-1.3-0.1c-0.4,0-0.8,0-1.3,0
	c-0.9,0-1.9,0.1-2.8,0.1c0-0.1-0.1-0.2-0.1-0.4c0-0.2,0.1-0.3,0.5-0.4c0.2,0,0.5-0.1,0.7-0.2c0.2-0.1,0.4-0.3,0.4-0.5v-0.1
	c0-0.1,0-0.1,0-0.2l-0.7-4H232L229.8,411.7z M236.4,406.8l-0.9-5.6l-3.1,5.6H236.4z"/>
<path class="st0" d="M250.6,406.1c0.1-0.4,0.1-0.7,0.1-1.1c0.1-0.3-0.2-0.6-0.5-0.7c-0.1,0-0.1,0-0.2,0c-0.3,0-0.6,0.2-0.9,0.4
	c-0.4,0.3-0.8,0.6-1.1,1c-0.4,0.5-0.8,0.9-1.1,1.4c-0.4,0.5-0.7,1.1-1,1.6c-0.1,0.3-0.3,0.6-0.4,0.9c-0.1,0.3-0.3,0.7-0.4,1
	c-0.1,0.3-0.2,0.7-0.2,1c-0.1,0.3-0.1,0.6-0.1,0.9c0,0.2,0,0.4,0.1,0.7c-0.6,0.1-1.3,0.2-1.9,0.4c-0.1-0.1-0.2-0.2-0.2-0.3
	c0-0.1,0-0.1,0-0.2c0-0.1,0-0.2,0-0.2c0.4-1.9,0.7-3.4,0.9-4.4c0.2-1.1,0.4-1.9,0.5-2.5c0.1-0.6,0.2-0.9,0.2-1.1c0-0.2,0-0.3,0-0.3
	c0-0.2-0.1-0.3-0.2-0.3c-0.1,0-0.2,0-0.3,0.1l-0.4,0.2l-0.4,0.2c-0.1,0-0.2,0.1-0.3,0.1c-0.1,0-0.2-0.1-0.2-0.1
	c-0.1-0.1-0.1-0.2-0.1-0.3c0.3-0.2,0.6-0.4,1-0.6s0.8-0.4,1.1-0.6l1-0.4c0.2-0.1,0.3-0.1,0.5-0.2c0.1,0,0.2,0,0.3,0.1
	c0.1,0.1,0.1,0.2,0.1,0.3c0,0.1,0,0.1,0,0.2c0,0.1,0,0.1,0,0.2l-0.8,4.2h0.1c0.4-0.7,0.9-1.4,1.3-2c0.4-0.6,0.9-1.1,1.4-1.6
	c0.4-0.4,0.9-0.7,1.4-1c0.4-0.2,0.9-0.4,1.4-0.4c0.4,0,0.8,0.1,1.1,0.3c0.3,0.3,0.4,0.7,0.4,1.1c0,0.2,0,0.5,0,0.7
	c0,0.3-0.1,0.5-0.1,0.8l-1.2,5.8c0,0.2-0.1,0.3-0.1,0.5c0,0.2,0.1,0.3,0.3,0.3c0.1,0,0.2,0,0.3-0.1c0.1-0.1,0.3-0.1,0.4-0.2l0.3-0.2
	c0.1,0,0.2-0.1,0.2-0.1c0.2,0,0.3,0.2,0.3,0.5c-0.3,0.2-0.6,0.4-0.9,0.6s-0.6,0.4-0.9,0.5c-0.3,0.1-0.5,0.3-0.8,0.4
	c-0.2,0.1-0.4,0.1-0.6,0.1c-0.2,0-0.3,0-0.5-0.1c-0.1-0.1-0.2-0.2-0.2-0.5c0-0.1,0-0.2,0-0.2c0-0.1,0-0.2,0-0.3L250.6,406.1z"/>
<path class="st0" d="M261.5,409.4h-0.1c-0.4,0.7-0.8,1.4-1.2,2c-0.4,0.5-0.8,0.9-1.2,1.3c-0.4,0.3-0.8,0.6-1.2,0.7
	c-0.4,0.1-0.7,0.2-1.1,0.2c-0.2,0-0.5,0-0.7-0.1c-0.2-0.1-0.4-0.2-0.6-0.4c-0.2-0.2-0.3-0.5-0.4-0.7c-0.1-0.4-0.2-0.8-0.1-1.2
	c0-2.3,0.8-4.6,2.3-6.4c0.6-0.7,1.3-1.3,2.1-1.7c0.7-0.4,1.4-0.6,2.1-0.6c0.5,0,1,0,1.5,0.1c0.5,0.1,1.1,0.2,1.6,0.3l-1.7,8.4
	c0,0.1,0,0.3,0,0.4c0,0.2,0.1,0.3,0.3,0.3c0.1,0,0.2,0,0.4-0.1l0.4-0.2l0.3-0.2c0.1,0,0.2-0.1,0.3-0.1c0.2,0,0.3,0.2,0.3,0.5
	c-0.3,0.2-0.6,0.4-0.9,0.6s-0.6,0.4-0.9,0.5c-0.3,0.1-0.5,0.3-0.8,0.4c-0.2,0.1-0.4,0.1-0.6,0.1c-0.2,0-0.3,0-0.5-0.1
	c-0.2-0.1-0.2-0.3-0.2-0.5c0-0.1,0-0.2,0-0.3c0-0.1,0-0.2,0.1-0.3L261.5,409.4z M262.4,403.9c-0.2-0.1-0.4-0.1-0.6-0.2
	c-0.2,0-0.4-0.1-0.7-0.1c-0.6,0-1.2,0.2-1.8,0.5c-0.5,0.4-1,0.9-1.3,1.4c-0.4,0.7-0.7,1.4-0.9,2.2c-0.2,0.9-0.3,1.8-0.3,2.7
	c0,0.4,0,0.9,0.2,1.2c0.1,0.2,0.3,0.4,0.6,0.4c0.4,0,0.7-0.2,1-0.4c0.4-0.3,0.8-0.7,1.1-1.1c0.4-0.5,0.7-1,1-1.6
	c0.3-0.6,0.6-1.2,0.8-1.8c0.2-0.6,0.4-1.2,0.6-1.8C262.3,404.9,262.3,404.4,262.4,403.9z"/>
<path class="st0" d="M277.6,398.6l-2.5,13c-0.1,0.3,0,0.6,0.3,0.8c0.4,0.2,0.9,0.3,1.3,0.4c0.1,0,0.2,0.1,0.2,0.1
	c0.1,0.1,0.1,0.2,0.1,0.3c0,0.1,0,0.1,0,0.2c0,0.1,0,0.1,0,0.2c-0.5,0-1-0.1-1.5-0.1s-1.1,0-1.6,0h-1.3c-0.5,0-1,0.1-1.5,0.1
	c0-0.1,0-0.1,0-0.2c0-0.1,0-0.1,0-0.2c0-0.2,0.1-0.4,0.3-0.4c0.4-0.1,0.8-0.2,1.1-0.3c0.3-0.1,0.4-0.4,0.5-0.7l2.4-12.5
	c0.1-0.3,0-0.6-0.2-0.7c-0.3-0.2-0.6-0.3-0.9-0.3c-0.3,0-0.4-0.2-0.4-0.4c0-0.1,0-0.3,0.1-0.4c0.5,0,1,0.1,1.5,0.1s1,0,1.4,0h2.1
	c0.7,0,1.4,0.1,2.1,0.3c0.5,0.2,1.1,0.4,1.5,0.8c0.4,0.3,0.7,0.7,0.9,1.2c0.2,0.5,0.3,1,0.3,1.5c0,0.7-0.1,1.4-0.4,2
	c-0.3,0.6-0.7,1.2-1.2,1.6c-0.6,0.5-1.2,0.9-1.9,1.1c-0.8,0.3-1.7,0.4-2.5,0.4h-1c0-0.3,0.1-0.5,0.3-0.7c0.1-0.2,0.3-0.2,0.5-0.2
	c1.1,0,2.1-0.3,2.9-1c0.7-0.9,1.1-2,1-3.1c0-0.4-0.1-0.7-0.2-1.1c-0.1-0.3-0.3-0.7-0.5-0.9c-0.2-0.3-0.6-0.5-0.9-0.7
	c-0.4-0.2-0.9-0.3-1.4-0.2L277.6,398.6z"/>
<path class="st0" d="M289.7,409.4h-0.1c-0.4,0.7-0.8,1.4-1.2,2c-0.4,0.5-0.8,0.9-1.2,1.3c-0.4,0.3-0.8,0.6-1.2,0.7
	c-0.4,0.1-0.7,0.2-1.1,0.2c-0.2,0-0.5,0-0.7-0.1c-0.2-0.1-0.4-0.2-0.6-0.4c-0.2-0.2-0.3-0.5-0.4-0.7c-0.1-0.4-0.2-0.8-0.1-1.2
	c0-2.3,0.8-4.6,2.3-6.4c0.6-0.7,1.3-1.3,2.1-1.7c0.7-0.4,1.4-0.6,2.1-0.6c0.5,0,1,0,1.5,0.1c0.5,0.1,1.1,0.2,1.6,0.3l-1.7,8.4
	c0,0.1,0,0.3,0,0.4c0,0.2,0.1,0.3,0.3,0.3c0.1,0,0.2,0,0.4-0.1l0.4-0.2l0.3-0.2c0.1,0,0.2-0.1,0.3-0.1c0.2,0,0.3,0.2,0.3,0.5
	c-0.3,0.2-0.6,0.4-0.9,0.6s-0.6,0.4-0.9,0.5c-0.3,0.1-0.5,0.3-0.8,0.4c-0.2,0.1-0.4,0.1-0.6,0.1c-0.2,0-0.3,0-0.5-0.1
	c-0.2-0.1-0.2-0.3-0.2-0.5c0-0.1,0-0.2,0-0.3c0-0.1,0-0.2,0.1-0.3L289.7,409.4z M290.6,403.9c-0.2-0.1-0.4-0.1-0.6-0.2
	c-0.2,0-0.4-0.1-0.7-0.1c-0.6,0-1.2,0.2-1.8,0.5c-0.5,0.4-1,0.9-1.3,1.4c-0.4,0.7-0.7,1.4-0.9,2.2c-0.2,0.9-0.3,1.8-0.3,2.7
	c0,0.4,0,0.9,0.2,1.2c0.1,0.2,0.3,0.4,0.6,0.4c0.4,0,0.7-0.2,1-0.4c0.4-0.3,0.8-0.7,1.1-1.1c0.4-0.5,0.7-1,1-1.6
	c0.3-0.6,0.6-1.2,0.8-1.8c0.2-0.6,0.4-1.2,0.6-1.8C290.5,404.9,290.6,404.4,290.6,403.9z"/>
<path class="st0" d="M297.2,410.3c-0.1,0.4-0.1,0.7-0.1,1.1c0,0.2,0.1,0.4,0.2,0.6c0.2,0.1,0.4,0.2,0.6,0.2c0.4,0,0.8-0.2,1.1-0.4
	c0.4-0.3,0.8-0.7,1.1-1.1c0.4-0.5,0.8-1,1.1-1.6c0.3-0.6,0.6-1.2,0.9-1.8c0.3-0.6,0.5-1.2,0.6-1.8c0.1-0.5,0.2-1.1,0.2-1.6
	c0-0.2,0-0.4-0.1-0.6c0.6-0.1,1.3-0.2,1.9-0.4c0.1,0.1,0.2,0.2,0.2,0.3c0,0.1,0,0.1,0,0.2c0,0.1,0,0.2,0,0.2l-1.6,8.3
	c0,0.3,0.1,0.4,0.3,0.4c0.1,0,0.2,0,0.3-0.1l0.4-0.2l0.3-0.2c0.1-0.1,0.2-0.1,0.3-0.1c0.1,0,0.2,0.1,0.3,0.4
	c-0.3,0.2-0.6,0.4-0.9,0.6s-0.6,0.4-0.9,0.5c-0.3,0.1-0.5,0.2-0.8,0.3c-0.2,0.1-0.4,0.1-0.6,0.1c-0.2,0-0.3,0-0.5-0.1
	c-0.1-0.1-0.2-0.2-0.2-0.5c0-0.2,0-0.2,0-0.2c0-0.1,0-0.2,0.1-0.3l0.7-3.3H302c-0.6,1.3-1.5,2.5-2.6,3.4c-0.7,0.6-1.6,1-2.6,1
	c-0.4,0-0.9-0.1-1.2-0.4c-0.3-0.3-0.5-0.7-0.4-1.2c0-0.2,0-0.5,0-0.7c0-0.3,0.1-0.5,0.1-0.8l1.2-5.6c0-0.1,0-0.1,0-0.2
	c0-0.1,0-0.1,0-0.2c0-0.3,0-0.4-0.2-0.4c-0.1,0-0.2,0-0.3,0.1l-0.4,0.2l-0.4,0.2c-0.1,0-0.2,0.1-0.3,0.1c-0.1,0-0.2-0.1-0.2-0.1
	c-0.1-0.1-0.1-0.2-0.1-0.3l1-0.6c0.4-0.2,0.8-0.4,1.1-0.6l1-0.4c0.2-0.1,0.4-0.1,0.6-0.2c0.3,0,0.5,0.1,0.5,0.4c0,0.1,0,0.2,0,0.2
	v0.2L297.2,410.3z"/>
<path class="st0" d="M309.9,398.4c0-0.1,0-0.2,0-0.2c0-0.1-0.1-0.1-0.2-0.1h-0.3l-0.4,0.1l-0.4,0.1h-0.2c-0.2,0-0.3-0.2-0.3-0.5
	c0.7-0.2,1.4-0.4,2-0.6c0.6-0.2,1.2-0.4,1.8-0.7c0.1,0.1,0.2,0.1,0.2,0.2c0,0.1,0,0.2,0,0.2c0,0.1,0,0.3,0,0.4l-2.8,14.1
	c0,0.1,0,0.2,0,0.3c0,0.1,0,0.1,0,0.2c0,0.1,0.1,0.3,0.2,0.3c0,0,0,0,0.1,0c0.1,0,0.2,0,0.4-0.1l0.4-0.2l0.3-0.2
	c0.1,0,0.2-0.1,0.2-0.1c0.2,0,0.3,0.2,0.3,0.5c-0.3,0.2-0.6,0.4-0.9,0.6c-0.3,0.2-0.6,0.4-0.9,0.5c-0.3,0.1-0.5,0.3-0.8,0.4
	c-0.2,0.1-0.4,0.1-0.6,0.1c-0.2,0-0.3,0-0.5-0.1c-0.2-0.1-0.2-0.2-0.2-0.5c0-0.1,0-0.2,0-0.3c0-0.1,0-0.2,0-0.2l2.3-11.7
	c0.1-0.5,0.2-0.9,0.2-1.4C309.9,399.1,309.9,398.8,309.9,398.4z"/>
<path class="st0" d="M319.5,409.4h-0.1c-0.4,0.7-0.8,1.4-1.2,2c-0.4,0.5-0.8,0.9-1.2,1.3c-0.4,0.3-0.8,0.6-1.2,0.7
	c-0.4,0.1-0.7,0.2-1.1,0.2c-0.2,0-0.5,0-0.7-0.1c-0.2-0.1-0.4-0.2-0.6-0.4c-0.2-0.2-0.3-0.5-0.4-0.7c-0.1-0.4-0.2-0.8-0.1-1.2
	c0-2.3,0.8-4.6,2.3-6.4c0.6-0.7,1.3-1.3,2.1-1.7c0.7-0.4,1.4-0.6,2.1-0.6c1,0,2.1,0.1,3.1,0.3l-1.7,8.4c0,0.1,0,0.3,0,0.4
	c0,0.2,0.1,0.3,0.3,0.3c0.1,0,0.2,0,0.4-0.1l0.4-0.2l0.3-0.2c0.1,0,0.2-0.1,0.3-0.1c0.2,0,0.3,0.2,0.3,0.5c-0.3,0.2-0.6,0.4-0.9,0.6
	c-0.3,0.2-0.6,0.4-0.9,0.5c-0.3,0.1-0.5,0.3-0.8,0.4c-0.2,0.1-0.4,0.1-0.6,0.1c-0.2,0-0.3,0-0.5-0.1c-0.2-0.1-0.2-0.3-0.2-0.5
	c0-0.1,0-0.2,0-0.3c0-0.1,0-0.2,0.1-0.3L319.5,409.4z M320.3,403.9c-0.2-0.1-0.4-0.1-0.6-0.2c-0.2,0-0.4-0.1-0.7-0.1
	c-0.6,0-1.2,0.2-1.7,0.5c-0.5,0.4-1,0.9-1.3,1.4c-0.4,0.7-0.7,1.4-0.9,2.2c-0.2,0.9-0.3,1.8-0.3,2.7c0,0.4,0,0.9,0.2,1.2
	c0.1,0.2,0.4,0.4,0.6,0.4c0.4,0,0.7-0.2,1-0.4c0.4-0.3,0.8-0.7,1.1-1.1c0.4-0.5,0.7-1,1-1.6c0.3-0.6,0.6-1.2,0.8-1.8
	c0.2-0.6,0.4-1.2,0.5-1.8C320.2,404.9,320.3,404.4,320.3,403.9L320.3,403.9z"/>
<path class="st0" d="M336.8,413.7c-1.1,0-2.2-0.1-3.3-0.5c-0.8-0.3-1.6-0.8-2.2-1.4c-0.6-0.6-1-1.3-1.2-2.1
	c-0.3-0.8-0.4-1.7-0.4-2.5c0-1.2,0.2-2.4,0.6-3.5c0.4-1.2,1-2.2,1.8-3.2c0.8-1,1.8-1.7,2.9-2.3c1.3-0.6,2.7-0.9,4.1-0.9
	c0.8,0,1.6,0.1,2.3,0.2c0.7,0.1,1.5,0.3,2.2,0.5c0,0.5-0.1,0.9-0.1,1.4s0,0.6,0,1s0,0.6,0.1,1c-0.1,0.1-0.3,0.1-0.4,0.1
	c-0.3,0-0.5-0.1-0.5-0.4c0-0.9-0.5-1.7-1.2-2.2c-0.8-0.5-1.7-0.7-2.6-0.6c-1,0-2,0.2-2.9,0.7c-0.8,0.5-1.6,1.1-2.1,1.9
	c-0.6,0.8-1.1,1.8-1.4,2.8c-0.3,1.1-0.5,2.2-0.5,3.4c0,0.8,0.1,1.6,0.4,2.4c0.2,0.7,0.6,1.3,1,1.8c0.4,0.5,0.9,0.9,1.5,1.1
	c0.6,0.3,1.3,0.4,2,0.4c0.9,0,1.8-0.2,2.6-0.7c0.7-0.6,1.3-1.3,1.7-2.2c0.1-0.2,0.3-0.4,0.6-0.4c0.1,0,0.2,0,0.3,0.1
	c0.1,0,0.1,0.1,0.2,0.1c-0.2,0.5-0.5,1.1-0.6,1.6c-0.2,0.6-0.4,1.2-0.6,1.9l-1.1,0.2l-1.2,0.2l-1,0
	C337.4,413.7,337.1,413.7,336.8,413.7z"/>
<path class="st0" d="M350.8,409.4h-0.1c-0.4,0.7-0.8,1.4-1.2,2c-0.4,0.5-0.8,0.9-1.2,1.3c-0.4,0.3-0.8,0.6-1.2,0.7
	c-0.4,0.1-0.7,0.2-1.1,0.2c-0.2,0-0.5,0-0.7-0.1c-0.2-0.1-0.4-0.2-0.6-0.4c-0.2-0.2-0.3-0.5-0.4-0.7c-0.1-0.4-0.2-0.8-0.1-1.2
	c0-2.3,0.8-4.6,2.3-6.4c0.6-0.7,1.3-1.3,2.1-1.7c0.7-0.4,1.4-0.6,2.1-0.6c1,0,2.1,0.1,3.1,0.3l-1.7,8.4c0,0.1,0,0.3,0,0.4
	c0,0.2,0.1,0.3,0.3,0.3c0.1,0,0.2,0,0.4-0.1l0.4-0.2l0.3-0.2c0.1,0,0.2-0.1,0.3-0.1c0.2,0,0.3,0.2,0.3,0.5c-0.3,0.2-0.6,0.4-0.9,0.6
	c-0.3,0.2-0.6,0.4-0.9,0.5c-0.3,0.1-0.5,0.3-0.8,0.4c-0.2,0.1-0.4,0.1-0.6,0.1c-0.2,0-0.3,0-0.5-0.1c-0.2-0.1-0.2-0.3-0.2-0.5
	c0-0.1,0-0.2,0-0.3c0-0.1,0-0.2,0.1-0.3L350.8,409.4z M351.6,403.9c-0.2-0.1-0.4-0.1-0.6-0.2c-0.2,0-0.4-0.1-0.7-0.1
	c-0.6,0-1.2,0.2-1.7,0.5c-0.5,0.4-1,0.9-1.3,1.4c-0.4,0.7-0.7,1.4-0.9,2.2c-0.2,0.9-0.3,1.8-0.3,2.7c0,0.4,0,0.9,0.2,1.2
	c0.1,0.2,0.4,0.4,0.6,0.4c0.4,0,0.7-0.2,1-0.4c0.4-0.3,0.8-0.7,1.1-1.1c0.4-0.5,0.7-1,1-1.6c0.3-0.6,0.6-1.2,0.8-1.8
	c0.2-0.6,0.4-1.2,0.5-1.8C351.6,404.9,351.6,404.4,351.6,403.9L351.6,403.9z"/>
<path class="st0" d="M362.4,405c-0.3,0-0.6,0.1-0.9,0.3c-0.4,0.3-0.7,0.6-1,0.9c-0.4,0.4-0.7,0.9-1,1.4c-0.3,0.5-0.6,1.1-0.8,1.6
	c-0.2,0.6-0.4,1.2-0.6,1.8c-0.1,0.6-0.2,1.1-0.2,1.7c0,0.2,0,0.4,0.1,0.7c-0.3,0-0.6,0.1-1,0.1s-0.7,0.1-1,0.2
	c-0.1-0.1-0.2-0.2-0.2-0.3c0-0.1,0-0.2,0-0.3c0-0.1,0.1-0.2,0.1-0.3c0-0.1,0.1-0.2,0.1-0.3c0-0.2,0.1-0.3,0.1-0.5l1.1-5.5
	c0.1-0.6,0.2-1.1,0.2-1.3s0.1-0.4,0.1-0.5s-0.1-0.3-0.2-0.3c-0.1,0-0.2,0-0.3,0.1l-0.4,0.2l-0.4,0.2c-0.1,0-0.2,0.1-0.3,0.1
	c-0.1,0-0.2-0.1-0.2-0.1c-0.1-0.1-0.1-0.2-0.1-0.3c0.3-0.2,0.6-0.4,1-0.6l1.1-0.6c0.4-0.2,0.7-0.3,1-0.4c0.2-0.1,0.4-0.1,0.5-0.2
	c0.1,0,0.2,0,0.3,0.1c0.1,0.1,0.1,0.2,0.1,0.3c0,0,0,0.1,0,0.2s0,0.2,0,0.2l-0.8,3.6h0.1c0.6-1.2,1.4-2.4,2.4-3.4
	c0.5-0.6,1.3-1,2.1-1c0.1,0,0.3,0,0.4,0.1c0.1,0,0.2,0.1,0.2,0.1c-0.1,0.4-0.3,0.8-0.4,1.2c-0.1,0.4-0.2,0.9-0.3,1.4H363
	C362.9,405.3,362.7,405.1,362.4,405z"/>
<path class="st0" d="M371.1,405c-0.3,0-0.6,0.1-0.9,0.3c-0.4,0.3-0.7,0.6-1,0.9c-0.4,0.4-0.7,0.9-1,1.4c-0.3,0.5-0.6,1.1-0.8,1.6
	c-0.2,0.6-0.4,1.2-0.6,1.8c-0.1,0.6-0.2,1.1-0.2,1.7c0,0.2,0,0.4,0.1,0.7c-0.3,0-0.6,0.1-1,0.1s-0.7,0.1-1,0.2
	c-0.1-0.1-0.2-0.2-0.2-0.3c0-0.1,0-0.2,0-0.3c0-0.1,0.1-0.2,0.1-0.3c0-0.1,0.1-0.2,0.1-0.3c0-0.2,0.1-0.3,0.1-0.5l1.1-5.5
	c0.1-0.6,0.2-1.1,0.2-1.3s0-0.4,0.1-0.5s-0.1-0.3-0.2-0.3c-0.1,0-0.2,0-0.3,0.1l-0.4,0.2l-0.4,0.2c-0.1,0-0.2,0.1-0.3,0.1
	c-0.1,0-0.2-0.1-0.2-0.1c-0.1-0.1-0.1-0.2-0.1-0.3c0.3-0.2,0.6-0.4,1-0.6l1.1-0.6c0.4-0.2,0.7-0.3,1-0.4c0.2-0.1,0.4-0.1,0.5-0.2
	c0.1,0,0.2,0,0.3,0.1c0.1,0.1,0.1,0.2,0.1,0.3c0,0,0,0.1,0,0.2s0,0.2,0,0.2l-0.8,3.6h0.1c0.6-1.2,1.4-2.4,2.4-3.4
	c0.6-0.6,1.3-1,2.1-1c0.1,0,0.3,0,0.4,0.1c0.1,0,0.2,0.1,0.3,0.1c-0.1,0.4-0.3,0.8-0.4,1.2c-0.1,0.4-0.2,0.9-0.3,1.4h-0.3
	C371.7,405.2,371.4,405,371.1,405z"/>
<path class="st0" d="M379.1,409.4H379c-0.4,0.7-0.8,1.4-1.2,2c-0.4,0.5-0.8,0.9-1.2,1.3c-0.4,0.3-0.8,0.6-1.2,0.7
	c-0.4,0.1-0.7,0.2-1.1,0.2c-0.2,0-0.5,0-0.7-0.1c-0.2-0.1-0.4-0.2-0.6-0.4c-0.2-0.2-0.3-0.5-0.4-0.7c-0.1-0.4-0.2-0.8-0.1-1.2
	c0-2.3,0.8-4.6,2.3-6.4c0.6-0.7,1.3-1.3,2.1-1.7c0.7-0.4,1.4-0.6,2.1-0.6c1,0,2.1,0.1,3.1,0.3l-1.7,8.4c0,0.1,0,0.3,0,0.4
	c0,0.2,0.1,0.3,0.3,0.3c0.1,0,0.2,0,0.4-0.1l0.4-0.2l0.3-0.2c0.1,0,0.2-0.1,0.3-0.1c0.2,0,0.3,0.2,0.3,0.5c-0.3,0.2-0.6,0.4-0.9,0.6
	c-0.3,0.2-0.6,0.4-0.9,0.5c-0.3,0.1-0.5,0.3-0.8,0.4c-0.2,0.1-0.4,0.1-0.6,0.1c-0.2,0-0.3,0-0.5-0.1c-0.2-0.1-0.2-0.3-0.2-0.5
	c0-0.1,0-0.2,0-0.3c0-0.1,0-0.2,0.1-0.3L379.1,409.4z M380,403.9c-0.2-0.1-0.4-0.1-0.6-0.2c-0.2,0-0.4-0.1-0.7-0.1
	c-0.6,0-1.2,0.2-1.7,0.5c-0.5,0.4-1,0.9-1.3,1.4c-0.4,0.7-0.7,1.4-0.9,2.2c-0.2,0.9-0.3,1.8-0.3,2.7c0,0.4,0,0.9,0.2,1.2
	c0.1,0.2,0.4,0.4,0.6,0.4c0.4,0,0.7-0.2,1-0.4c0.4-0.3,0.8-0.7,1.1-1.1c0.4-0.5,0.7-1,1-1.6c0.3-0.6,0.6-1.2,0.8-1.8
	c0.2-0.6,0.4-1.2,0.5-1.8C379.9,404.9,380,404.4,380,403.9z"/>
<path class="st0" d="M392,406.1c0.1-0.4,0.1-0.7,0.1-1.1c0.1-0.3-0.2-0.6-0.5-0.7c-0.1,0-0.1,0-0.2,0c-0.3,0-0.6,0.2-0.9,0.4
	c-0.4,0.3-0.8,0.6-1.1,1c-0.4,0.5-0.8,0.9-1.1,1.4c-0.4,0.5-0.7,1.1-1,1.6c-0.1,0.3-0.3,0.6-0.4,0.9c-0.1,0.3-0.3,0.7-0.4,1
	c-0.1,0.3-0.2,0.7-0.2,1c-0.1,0.3-0.1,0.6-0.1,0.9c0,0.2,0,0.4,0.1,0.7c-0.6,0.1-1.3,0.2-1.9,0.4c-0.1-0.1-0.2-0.2-0.2-0.3
	c0-0.1,0-0.1,0-0.2c0-0.1,0-0.2,0-0.2c0.4-1.9,0.7-3.4,0.9-4.4c0.2-1.1,0.4-1.9,0.5-2.5c0.1-0.6,0.2-0.9,0.2-1.1s0-0.3,0-0.3
	c0-0.2-0.1-0.3-0.2-0.3c-0.1,0-0.2,0-0.3,0.1l-0.4,0.2l-0.4,0.2c-0.1,0-0.2,0.1-0.3,0.1c-0.1,0-0.2-0.1-0.2-0.1
	c-0.1-0.1-0.1-0.2-0.1-0.3c0.3-0.2,0.6-0.4,1-0.6s0.8-0.4,1.1-0.6l1-0.4c0.2-0.1,0.3-0.1,0.5-0.2c0.1,0,0.2,0,0.3,0.1
	c0.1,0.1,0.1,0.2,0.1,0.3c0,0.1,0,0.1,0,0.2c0,0.1,0,0.1,0,0.2l-0.8,4.2h0.1c0.4-0.7,0.9-1.4,1.3-2c0.4-0.6,0.9-1.1,1.4-1.6
	c0.4-0.4,0.9-0.7,1.4-1c0.4-0.2,0.9-0.4,1.4-0.4c0.4,0,0.8,0.1,1.1,0.3c0.3,0.3,0.4,0.7,0.4,1.1c0,0.2,0,0.5,0,0.7
	c0,0.3-0.1,0.5-0.1,0.8l-1.3,5.9c0,0.2-0.1,0.3-0.1,0.5c0,0.2,0.1,0.3,0.3,0.3c0.1,0,0.2,0,0.3-0.1c0.1-0.1,0.3-0.1,0.4-0.2l0.3-0.2
	c0.1,0,0.2-0.1,0.2-0.1c0.2,0,0.3,0.2,0.3,0.5c-0.3,0.2-0.6,0.4-0.9,0.6s-0.6,0.4-0.9,0.5c-0.3,0.1-0.5,0.3-0.8,0.4
	c-0.2,0.1-0.4,0.1-0.6,0.1c-0.2,0-0.3,0-0.5-0.1c-0.1-0.1-0.2-0.2-0.2-0.5c0-0.1,0-0.2,0-0.2c0-0.1,0-0.2,0-0.3L392,406.1z"/>
<path class="st0" d="M397.6,411.9c0.3-0.1,0.7-0.2,1-0.3c0.3,0,0.6-0.1,0.9-0.1c0.4,0,0.9,0,1.3,0.1c0.4,0.1,0.9,0.2,1.3,0.2
	c0.2,0,0.5-0.1,0.6-0.3c0.2-0.2,0.3-0.5,0.5-0.7c0-0.1,0.1-0.2,0.2-0.3c0.1-0.1,0.2-0.1,0.3-0.1h0.4c-0.1,0.5-0.3,0.9-0.4,1.4
	c-0.1,0.5-0.2,0.9-0.2,1.3l-0.2,0.2c-0.2,0.1-0.4,0.1-0.6,0.2c-0.2,0-0.4,0-0.6,0c-0.4,0-0.7,0-1.1-0.1l-1.1-0.2l-1.1-0.2
	c-0.4-0.1-0.7-0.1-1.1-0.1c-0.3,0-0.5,0-0.8,0.1c-0.3,0.1-0.5,0.2-0.7,0.4h-0.5c-0.1-0.1-0.1-0.2-0.1-0.3c0-0.1,0.1-0.2,0.2-0.3
	l7-8.2c-0.5,0.2-1,0.4-1.6,0.3c-0.3,0-0.6,0-0.8-0.1l-0.6-0.1l-0.6-0.1c-0.2,0-0.5-0.1-0.7-0.1c-0.3,0-0.5,0.2-0.7,0.7
	c0,0.1-0.1,0.2-0.2,0.3c-0.1,0.1-0.2,0.2-0.4,0.1h-0.4c0.2-0.8,0.4-1.6,0.5-2.4l0.1-0.1c0.3-0.1,0.7-0.2,1-0.1c0.3,0,0.7,0,1,0.1
	l1,0.2l1,0.2c0.3,0.1,0.7,0.1,1,0.1c0.3,0,0.7,0,1-0.1c0.4-0.1,0.7-0.2,1-0.4h0.4c0.1,0.1,0.1,0.2,0.1,0.2c0,0.1-0.1,0.2-0.2,0.3
	L397.6,411.9z"/>
<path class="st0" d="M412.2,409.4h-0.1c-0.4,0.7-0.8,1.4-1.2,2c-0.4,0.5-0.8,0.9-1.2,1.3c-0.4,0.3-0.8,0.6-1.2,0.7
	c-0.4,0.1-0.7,0.2-1.1,0.2c-0.2,0-0.5,0-0.7-0.1c-0.2-0.1-0.4-0.2-0.6-0.4c-0.2-0.2-0.3-0.5-0.4-0.7c-0.1-0.4-0.2-0.8-0.1-1.2
	c0-2.3,0.8-4.6,2.3-6.4c0.6-0.7,1.3-1.3,2.1-1.7c0.7-0.4,1.4-0.6,2.1-0.6c1,0,2.1,0.1,3.1,0.3l-1.7,8.4c0,0.1,0,0.3,0,0.4
	c0,0.2,0.1,0.3,0.3,0.3c0.1,0,0.2,0,0.4-0.1l0.4-0.2l0.3-0.2c0.1,0,0.2-0.1,0.3-0.1c0.2,0,0.3,0.2,0.3,0.5c-0.3,0.2-0.6,0.4-0.9,0.6
	c-0.3,0.2-0.6,0.4-0.9,0.5c-0.3,0.1-0.5,0.3-0.8,0.4c-0.2,0.1-0.4,0.1-0.6,0.1c-0.2,0-0.3,0-0.5-0.1c-0.2-0.1-0.2-0.3-0.2-0.5
	c0-0.1,0-0.2,0-0.3c0-0.1,0-0.2,0.1-0.3L412.2,409.4z M413,403.9c-0.2-0.1-0.4-0.1-0.6-0.2c-0.2,0-0.4-0.1-0.6-0.1
	c-0.6,0-1.2,0.2-1.7,0.5c-0.5,0.4-1,0.9-1.3,1.4c-0.4,0.7-0.7,1.4-0.9,2.2c-0.2,0.9-0.3,1.8-0.3,2.7c0,0.4,0,0.9,0.2,1.2
	c0.1,0.2,0.4,0.4,0.6,0.4c0.4,0,0.7-0.2,1-0.4c0.4-0.3,0.8-0.7,1.1-1.1c0.4-0.5,0.7-1,1-1.6c0.3-0.6,0.6-1.2,0.8-1.8
	c0.2-0.6,0.4-1.2,0.5-1.8C413,404.9,413,404.4,413,403.9z"/>
<path class="st0" d="M186.5,221.6v-1.4h14.9c2.8,0,5.5-0.1,8.2-0.1c2.7-0.1,5.4-0.1,8.2-0.1c2.7,0,5.4,0.3,8.1,0.8
	c2.7,0.5,5.4,1.4,7.8,2.7c2.3,1.2,4.3,3,5.9,5.2c1.6,2.4,2.4,5.3,2.3,8.2c0.1,2.4-0.5,4.7-1.8,6.7c-1.2,1.9-2.7,3.4-4.6,4.6
	c-1.9,1.2-4,2.1-6.2,2.7c-2.2,0.6-4.5,1-6.8,1.2v0.5c3.2,0.6,6.1,1.2,8.6,1.8c2.3,0.5,4.5,1.4,6.6,2.7c1.9,1.2,3.4,2.9,4.4,4.9
	c1.2,2.7,1.9,5.5,2,8.5c0.3,4.1,0.6,7.4,0.8,9.9c0.1,2,0.4,3.9,0.8,5.8c0.2,1.1,0.7,2,1.5,2.8c0.8,0.5,1.8,0.8,2.7,0.7
	c1.2,0,2.3-0.4,3.2-1.1c0.9-0.8,1.6-1.5,2.3-2.1l1,0.9c-0.7,0.7-1.3,1.3-1.9,1.8c-0.6,0.6-1.4,1.1-2.2,1.4c-1,0.4-2,0.8-3,0.9
	c-1.5,0.2-3,0.4-4.5,0.3c-3.6,0-6.4-0.6-8.5-1.7c-1.9-1-3.4-2.5-4.5-4.3c-1-1.7-1.6-3.6-1.8-5.6c-0.2-2-0.4-3.9-0.4-5.7
	c-0.1-2.7-0.3-5.3-0.5-7.8c-0.2-2.3-0.7-4.6-1.6-6.7c-0.8-1.9-2.1-3.5-3.8-4.7c-2.2-1.3-4.7-1.9-7.2-1.8h-6.5v35.5h9.1v1.4h-32.3
	v-1.4h9.1v-67.3H186.5z M213.9,252c2.4,0.1,4.8-0.3,7-1.2c1.6-0.7,2.9-1.8,3.8-3.2c0.9-1.4,1.4-3,1.6-4.6c0.2-1.7,0.3-3.5,0.3-5.2
	c0-2.5-0.2-5-0.6-7.4c-0.3-1.8-1-3.6-2-5.1c-0.9-1.4-2.3-2.4-3.8-3c-2-0.7-4.1-1.1-6.1-1c-0.7,0-1.4,0-2.2,0.1l-2.2,0.2V252
	L213.9,252z"/>
<path class="st0" d="M336.4,220.2V237h-1.3c-0.5-1.5-1-2.9-1.7-4.3c-0.9-1.8-2-3.5-3.3-5.1c-1.5-1.7-3.4-3.2-5.5-4.3
	c-2.5-1.3-5.3-1.9-8.2-1.8h-15.7V252h5.5c2.1,0.1,4.2-0.3,6.1-1c1.6-0.7,3-1.7,4.2-3c1.2-1.4,2.1-2.9,2.8-4.6c0.8-2,1.4-4,1.8-6.1
	h1.3V268h-1.3c-0.4-1.9-1-3.7-1.6-5.5c-0.6-1.7-1.4-3.3-2.5-4.7c-1-1.3-2.4-2.4-3.9-3.2c-1.8-0.8-3.8-1.2-5.8-1.2h-6.6v35.5h16.1
	c2.8,0,5.6-0.5,8.2-1.5c2.4-1,4.6-2.5,6.5-4.3c1.9-1.9,3.5-4.1,4.7-6.5c1.3-2.5,2.2-5.2,2.9-7.9h1.3v21.6h-62.9v-1.4h9.1v-67.3h-9.1
	v-1.4H336.4z"/>
<path class="st0" d="M400.4,288.9v1.4H368v-1.4h9.1v-67.3H368v-1.4h9.1c3.3,0,6.7-0.1,10-0.1c3.3-0.1,6.7-0.1,10-0.1
	c3.2,0,6.4,0.3,9.5,0.7c3.3,0.5,6.5,1.4,9.5,2.8c2.8,1.3,5.3,3.2,7.2,5.6c2,2.7,3,6,2.9,9.3c0,2.5-0.6,5-1.9,7.2
	c-1.4,2.4-3.3,4.4-5.7,5.9c-3,1.9-6.2,3.2-9.6,4c-4.5,1.1-9.1,1.6-13.7,1.5h-4v32L400.4,288.9z M394.4,255.6c5.6,0,9.6-1.3,12.1-3.8
	c2.5-2.5,3.7-6.8,3.7-12.9c0-5.7-1.1-10.1-3.2-13.1c-2.2-3-6.1-4.5-11.8-4.5c-0.7,0-1.4,0-2.1,0.1l-1.8,0.2v34L394.4,255.6z"/>
<line class="st1" x1="69.5" y1="322.9" x2="543.3" y2="322.9"/>
</svg>
