<svg id="Capa_1" data-name="Capa 1" xmlns="http://www.w3.org/2000/svg" viewBox="0 0 780.91 329.06"><defs><style>.cls-1,.cls-2{fill:#fff;}.cls-2{stroke:#fff;stroke-miterlimit:10;stroke-width:0.5px;}</style></defs><title>logomenuanap</title><path class="cls-1" d="M30.46,253.19l-9.18-12.3h-9v12.3H8.67V221.54H22.28c7,0,11.44,3.75,11.44,9.45,0,5.29-3.62,8.37-8.59,9.27l9.72,12.93ZM22,224.84H12.24v12.84H22c4.75,0,8.14-2.44,8.14-6.56C30.1,227.19,27.12,224.84,22,224.84Z" transform="translate(-5.09 -4.46)"/><path class="cls-1" d="M64.16,250.7a9.67,9.67,0,0,0,7.37-3.3l2.17,1.94a12.06,12.06,0,0,1-9.63,4.38c-6.42,0-11.66-4.93-11.66-12.21,0-6.78,4.75-12.21,11.21-12.21,6.92,0,10.9,5.52,10.9,12.39a9,9,0,0,1,0,1.08H55.93C56.43,247.85,60.05,250.7,64.16,250.7ZM71,240.21c-.36-4.25-2.8-8-7.46-8-4.07,0-7.14,3.39-7.6,8Z" transform="translate(-5.09 -4.46)"/><path class="cls-1" d="M95.52,234.29l-1-2.85a19.31,19.31,0,0,1,8.5-1.94c6.37,0,9.94,3.26,9.94,9.4v14.29h-3.34v-3.53a10.25,10.25,0,0,1-8.46,4c-4.34,0-8.72-2.44-8.72-7.33s4.07-7.6,10-7.6a24.76,24.76,0,0,1,7.19,1v-.81c0-4.2-2.58-6.38-7-6.38A16.3,16.3,0,0,0,95.52,234.29Zm.41,11.94c0,3,2.71,4.7,5.88,4.7,4.29,0,7.82-2.62,7.82-6.33v-2.26a24.34,24.34,0,0,0-6.87-1C98.37,241.34,95.93,243.24,95.93,246.22Z" transform="translate(-5.09 -4.46)"/><path class="cls-1" d="M134.2,253.19v-33h3.48v33Z" transform="translate(-5.09 -4.46)"/><path class="cls-1" d="M209.9,224.79H190.6V235.6h17.27v3.26H190.6v11.08h19.53v3.26H187V221.54H209.9Z" transform="translate(-5.09 -4.46)"/><path class="cls-1" d="M238,253.64a16.08,16.08,0,0,1-9.67-3.44l1.76-2.49a13.66,13.66,0,0,0,8.09,3c2.8,0,4.84-1.45,4.84-3.71v-.09c0-2.35-2.75-3.26-5.83-4.11-3.66-1-7.73-2.31-7.73-6.6v-.09c0-4,3.35-6.69,8-6.69a16,16,0,0,1,8.41,2.58l-1.58,2.62a13.22,13.22,0,0,0-6.92-2.26c-2.76,0-4.52,1.45-4.52,3.39v.09c0,2.22,2.89,3.07,6,4,3.62,1.08,7.5,2.49,7.5,6.69v.09C246.32,251.06,242.66,253.64,238,253.64Z" transform="translate(-5.09 -4.46)"/><path class="cls-1" d="M270.57,246.54c0,2.85,1.58,3.89,3.93,3.89a7.34,7.34,0,0,0,3.39-.81v3a8.78,8.78,0,0,1-4.2,1c-3.75,0-6.6-1.85-6.6-6.6V232.89h-3.26v-3.08h3.26v-7.05h3.48v7.05H278v3.08h-7.42Z" transform="translate(-5.09 -4.46)"/><path class="cls-1" d="M299,234.29l-1-2.85a19.31,19.31,0,0,1,8.5-1.94c6.37,0,9.94,3.26,9.94,9.4v14.29h-3.34v-3.53a10.25,10.25,0,0,1-8.45,4c-4.34,0-8.73-2.44-8.73-7.33s4.07-7.6,10-7.6a24.76,24.76,0,0,1,7.19,1v-.81c0-4.2-2.58-6.38-7-6.38A16.3,16.3,0,0,0,299,234.29Zm.41,11.94c0,3,2.71,4.7,5.88,4.7,4.29,0,7.82-2.62,7.82-6.33v-2.26a24.34,24.34,0,0,0-6.87-1C301.89,241.34,299.45,243.24,299.45,246.22Z" transform="translate(-5.09 -4.46)"/><path class="cls-1" d="M341.88,246.54c0,2.85,1.58,3.89,3.93,3.89a7.34,7.34,0,0,0,3.39-.81v3a8.78,8.78,0,0,1-4.2,1c-3.75,0-6.6-1.85-6.6-6.6V232.89h-3.26v-3.08h3.26v-7.05h3.48v7.05h7.42v3.08h-7.42Z" transform="translate(-5.09 -4.46)"/><path class="cls-1" d="M378.62,250.7a9.67,9.67,0,0,0,7.37-3.3l2.17,1.94a12.06,12.06,0,0,1-9.63,4.38c-6.42,0-11.66-4.93-11.66-12.21,0-6.78,4.75-12.21,11.21-12.21,6.92,0,10.9,5.52,10.9,12.39a9,9,0,0,1,0,1.08H370.39C370.89,247.85,374.51,250.7,378.62,250.7Zm6.83-10.49c-.36-4.25-2.8-8-7.46-8-4.07,0-7.14,3.39-7.6,8Z" transform="translate(-5.09 -4.46)"/><path class="cls-1" d="M447.58,242h-7.69v11.17h-3.57V221.54h11.85c7.14,0,11.85,3.8,11.85,10.08C460,238.49,454.32,242,447.58,242Zm.32-17.18h-8v13.93h7.82c5.24,0,8.68-2.8,8.68-7C456.4,227.19,453,224.84,447.9,224.84Z" transform="translate(-5.09 -4.46)"/><path class="cls-1" d="M483,253.19h-3.48V229.81H483v6.11c1.72-3.89,5.11-6.69,9.54-6.51v3.75h-.27c-5.11,0-9.27,3.66-9.27,10.71Z" transform="translate(-5.09 -4.46)"/><path class="cls-1" d="M521,253.73a12,12,0,0,1-12.12-12.16A12.18,12.18,0,1,1,521,253.73Zm0-21.34c-5.07,0-8.55,4-8.55,9.09s3.71,9.13,8.63,9.13,8.59-4,8.59-9S525.94,232.39,521,232.39Z" transform="translate(-5.09 -4.46)"/><path class="cls-1" d="M565.52,253.69a10.55,10.55,0,0,1-9-5v11.71h-3.48V229.81h3.48v4.7c1.9-2.8,4.66-5.2,9-5.2,5.61,0,11.17,4.43,11.17,12.16S571.17,253.69,565.52,253.69Zm-.63-21.25a8.7,8.7,0,0,0-8.45,9c0,5.47,4.11,9.09,8.45,9.09,4.52,0,8.23-3.34,8.23-9S569.31,232.43,564.88,232.43Z" transform="translate(-5.09 -4.46)"/><path class="cls-1" d="M607,250.7a9.67,9.67,0,0,0,7.37-3.3l2.17,1.94a12.06,12.06,0,0,1-9.63,4.38c-6.42,0-11.66-4.93-11.66-12.21,0-6.78,4.75-12.21,11.21-12.21,6.92,0,10.9,5.52,10.9,12.39a9,9,0,0,1,0,1.08H598.72C599.22,247.85,602.84,250.7,607,250.7Zm6.83-10.49c-.36-4.25-2.8-8-7.46-8-4.07,0-7.14,3.39-7.6,8Z" transform="translate(-5.09 -4.46)"/><path class="cls-1" d="M640.43,253.19H637V229.81h3.48v6.11c1.72-3.89,5.11-6.69,9.54-6.51v3.75h-.27c-5.11,0-9.27,3.66-9.27,10.71Z" transform="translate(-5.09 -4.46)"/><path class="cls-1" d="M673.51,246.54c0,2.85,1.58,3.89,3.93,3.89a7.34,7.34,0,0,0,3.39-.81v3a8.78,8.78,0,0,1-4.2,1c-3.75,0-6.6-1.85-6.6-6.6V232.89h-3.26v-3.08H670v-7.05h3.48v7.05h7.42v3.08h-7.42Z" transform="translate(-5.09 -4.46)"/><path class="cls-1" d="M700.71,224.7v-3.84h4v3.84Zm.23,28.48V229.81h3.48v23.38Z" transform="translate(-5.09 -4.46)"/><path class="cls-1" d="M736.37,250.7a9.67,9.67,0,0,0,7.37-3.3l2.17,1.94a12.06,12.06,0,0,1-9.63,4.38c-6.42,0-11.66-4.93-11.66-12.21,0-6.78,4.75-12.21,11.21-12.21,6.92,0,10.9,5.52,10.9,12.39a9,9,0,0,1,0,1.08H728.14C728.64,247.85,732.26,250.7,736.37,250.7Zm6.83-10.49c-.36-4.25-2.8-8-7.46-8-4.07,0-7.14,3.39-7.6,8Z" transform="translate(-5.09 -4.46)"/><path class="cls-1" d="M774.1,253.64a16.08,16.08,0,0,1-9.67-3.44l1.76-2.49a13.66,13.66,0,0,0,8.09,3c2.8,0,4.84-1.45,4.84-3.71v-.09c0-2.35-2.76-3.26-5.83-4.11-3.66-1-7.73-2.31-7.73-6.6v-.09c0-4,3.35-6.69,8-6.69a16,16,0,0,1,8.41,2.58l-1.58,2.62a13.22,13.22,0,0,0-6.92-2.26c-2.76,0-4.52,1.45-4.52,3.39v.09c0,2.22,2.89,3.07,6,4,3.62,1.08,7.5,2.49,7.5,6.69v.09C782.42,251.06,778.76,253.64,774.1,253.64Z" transform="translate(-5.09 -4.46)"/><path class="cls-1" d="M222.93,300.25a1.14,1.14,0,0,0-.06-.74,1,1,0,0,0-.46-.42,2.47,2.47,0,0,0-.78-.22l-1.05-.14a.86.86,0,0,1-.38-.18.55.55,0,0,1-.18-.46,2,2,0,0,1,0-.26q0-.14.06-.34h8.75a11.68,11.68,0,0,1,3.28.4,6.35,6.35,0,0,1,2.22,1.1,4.13,4.13,0,0,1,1.24,1.62,5.18,5.18,0,0,1,.38,2,6,6,0,0,1-1.56,4,12,12,0,0,1-4,3,12,12,0,0,1,2,.5,6.5,6.5,0,0,1,1.82,1,4.81,4.81,0,0,1,1.32,1.54,4.53,4.53,0,0,1,.5,2.2,7.25,7.25,0,0,1-.88,3.56,8.78,8.78,0,0,1-2.36,2.74,11.3,11.3,0,0,1-3.44,1.78,13.2,13.2,0,0,1-4.12.64H220c-.56,0-1.19,0-1.88.06s-1.4.1-2.12.18q0-.2-.06-.34a1.49,1.49,0,0,1,0-.3.61.61,0,0,1,.12-.36.55.55,0,0,1,.36-.2q2.28-.28,2.56-1.76Zm-.6,20.61a1,1,0,0,0,.1.84,1.23,1.23,0,0,0,.9.24H224a15.55,15.55,0,0,0,3.23-.32,7.42,7.42,0,0,0,2.64-1.08,5.22,5.22,0,0,0,1.75-2,7.07,7.07,0,0,0,.64-3.19,4,4,0,0,0-1.68-3.48,8.33,8.33,0,0,0-4.87-1.2h-1.36Zm2.28-11.74c2.71,0,4.66-.55,5.83-1.66a6.24,6.24,0,0,0,1.76-4.77,3.4,3.4,0,0,0-1.1-2.74,6,6,0,0,0-3.85-.94h-.76Z" transform="translate(-5.09 -4.46)"/><path class="cls-1" d="M243.83,332a4.21,4.21,0,0,0,3.18-1.38,8.25,8.25,0,0,0,1.85-4l2.08-10h-.16a19.14,19.14,0,0,1-4.23,5.69,6.57,6.57,0,0,1-4.15,1.7,3.16,3.16,0,0,1-2-.56,2.22,2.22,0,0,1-.7-1.84,10.22,10.22,0,0,1,.08-1.14c.06-.44.12-.86.2-1.26l1.94-9.31a2.59,2.59,0,0,0,.08-.38,3.27,3.27,0,0,0,0-.38c0-.32-.13-.48-.4-.48a1.5,1.5,0,0,0-.54.14l-.69.28-.66.28a1.21,1.21,0,0,1-.46.14.35.35,0,0,1-.32-.24,1.58,1.58,0,0,1-.16-.52l1.59-.92c.61-.34,1.21-.66,1.8-.94s1.12-.52,1.61-.72a3.16,3.16,0,0,1,1-.3c.5,0,.76.27.76.8a2.92,2.92,0,0,1-.08.68l-2.32,11.07a8.72,8.72,0,0,0-.24,1.8c0,.75.4,1.12,1.2,1.12a3.33,3.33,0,0,0,1.92-.72,9.88,9.88,0,0,0,1.93-1.88,19,19,0,0,0,1.75-2.66,29.24,29.24,0,0,0,1.44-3,22.79,22.79,0,0,0,1-3,10.92,10.92,0,0,0,.36-2.58,5.2,5.2,0,0,0-.12-1.12,18.14,18.14,0,0,0,3.27-.56.68.68,0,0,1,.25.48c0,.05,0,.16,0,.34s-.05.32-.08.42l-3.61,18.14a10.92,10.92,0,0,1-1.44,3.74,10.61,10.61,0,0,1-2.29,2.62A8.86,8.86,0,0,1,245.7,333a8.61,8.61,0,0,1-2.79.5,10.77,10.77,0,0,1-4.51-.8,15.32,15.32,0,0,0,.48-1.62,15.53,15.53,0,0,0,.28-1.7l.68-.24a5.51,5.51,0,0,0,1.62,2A3.78,3.78,0,0,0,243.83,332Z" transform="translate(-5.09 -4.46)"/><path class="cls-1" d="M269.31,320.5a2.25,2.25,0,0,0-.28.92.73.73,0,0,0,.54.7,7.47,7.47,0,0,0,1.66.38c.48.08.72.28.72.6a3.53,3.53,0,0,1-.08.6c-.8-.08-1.54-.14-2.22-.18s-1.39-.06-2.14-.06c-.54,0-1.08,0-1.66,0a17.54,17.54,0,0,0-1.9.2c0-.11-.05-.21-.08-.32a1.26,1.26,0,0,1,0-.28c0-.35.23-.56.68-.64a3.43,3.43,0,0,0,2.67-1.52L280,297.41a.69.69,0,0,1,.6-.4.68.68,0,0,1,.24,0l.2.08,4.27,23.69a1.49,1.49,0,0,0,.72,1.08,4.4,4.4,0,0,0,1.56.52,1.32,1.32,0,0,1,.68.24.53.53,0,0,1,.16.4,3.5,3.5,0,0,1-.08.6l-2.14-.14c-.67,0-1.37-.06-2.09-.06a45.13,45.13,0,0,0-4.68.24,1.57,1.57,0,0,1-.12-.6c0-.35.25-.56.76-.64a4.15,4.15,0,0,0,1.12-.36.92.92,0,0,0,.6-.88V321a2,2,0,0,0,0-.36l-1.2-6.67h-7.67Zm10.94-8.07-1.56-9.31-5,9.31Z" transform="translate(-5.09 -4.46)"/><path class="cls-1" d="M303.63,311.39a8.77,8.77,0,0,0,.24-1.8,1,1,0,0,0-1.12-1.16,2.66,2.66,0,0,0-1.48.66,13.42,13.42,0,0,0-1.84,1.72,27.25,27.25,0,0,0-1.9,2.38,24.22,24.22,0,0,0-1.66,2.68q-.36.68-.7,1.5c-.23.55-.42,1.11-.6,1.68a14.3,14.3,0,0,0-.4,1.7,9.37,9.37,0,0,0-.14,1.56,4.68,4.68,0,0,0,.12,1.08,20.08,20.08,0,0,0-3.16.6.56.56,0,0,1-.32-.48,3.07,3.07,0,0,1,0-.34,3.18,3.18,0,0,1,.08-.42q.92-4.63,1.44-7.31t.78-4.06q.26-1.38.32-1.8t.06-.5c0-.32-.11-.48-.32-.48a1.31,1.31,0,0,0-.48.14l-.66.28-.66.28a1.38,1.38,0,0,1-.48.14.39.39,0,0,1-.34-.24,2,2,0,0,1-.22-.56c.48-.29,1-.61,1.7-.94s1.28-.64,1.89-.92,1.14-.51,1.59-.7a3.27,3.27,0,0,1,.88-.28.8.8,0,0,1,.48.14.52.52,0,0,1,.2.46,2.92,2.92,0,0,1,0,.3c0,.12,0,.25-.06.38l-1.44,7h.16q1-1.76,2.16-3.27a20.62,20.62,0,0,1,2.25-2.62,10.34,10.34,0,0,1,2.29-1.72,5,5,0,0,1,2.35-.62,2.65,2.65,0,0,1,1.78.56,2.3,2.3,0,0,1,.66,1.84,8.61,8.61,0,0,1-.08,1.12c-.05.43-.12.85-.2,1.28l-2,9.59a4.91,4.91,0,0,0-.12.76c0,.34.16.52.48.52a1.4,1.4,0,0,0,.56-.14,5.19,5.19,0,0,0,.62-.32l.54-.32a.84.84,0,0,1,.4-.14c.26,0,.45.26.56.8-.48.35-1,.67-1.47,1s-1,.58-1.48.82a11.71,11.71,0,0,1-1.37.58,3.29,3.29,0,0,1-1,.22,1.88,1.88,0,0,1-.82-.18c-.25-.12-.38-.41-.38-.86a3,3,0,0,1,0-.38c0-.17.06-.32.08-.46Z" transform="translate(-5.09 -4.46)"/><path class="cls-1" d="M321.53,316.82h-.16a21.32,21.32,0,0,1-2,3.32,13.51,13.51,0,0,1-2.06,2.2,7.49,7.49,0,0,1-2,1.22,5.18,5.18,0,0,1-1.86.38,3.56,3.56,0,0,1-1.13-.18,2.31,2.31,0,0,1-1-.62,3,3,0,0,1-.66-1.2,6.53,6.53,0,0,1-.24-1.92,15.4,15.4,0,0,1,3.83-10.49,12.17,12.17,0,0,1,3.54-2.78,7.94,7.94,0,0,1,3.54-1q1.28,0,2.46.12a24.67,24.67,0,0,1,2.65.44l-2.75,13.86a3.49,3.49,0,0,0-.08.72c0,.34.14.52.44.52a1.37,1.37,0,0,0,.58-.14c.2-.09.4-.2.6-.32l.55-.32a1,1,0,0,1,.42-.14c.26,0,.45.26.56.8-.48.35-1,.67-1.5,1s-1,.58-1.5.82a10.75,10.75,0,0,1-1.36.58,3.36,3.36,0,0,1-1,.22,1.75,1.75,0,0,1-.79-.18.78.78,0,0,1-.37-.78,3.35,3.35,0,0,1,0-.46,3.63,3.63,0,0,1,.12-.54Zm1.44-9.07a7.66,7.66,0,0,0-1.06-.26,6.54,6.54,0,0,0-1.1-.1,5.15,5.15,0,0,0-2.88.84,7.25,7.25,0,0,0-2.19,2.36,12.64,12.64,0,0,0-1.42,3.6,19.23,19.23,0,0,0-.5,4.51,4.34,4.34,0,0,0,.36,2.06,1.1,1.1,0,0,0,1,.62,2.87,2.87,0,0,0,1.72-.72,9.75,9.75,0,0,0,1.78-1.88,22.84,22.84,0,0,0,1.65-2.62,23.24,23.24,0,0,0,1.38-3,24.2,24.2,0,0,0,.92-2.94A10.85,10.85,0,0,0,323,307.76Z" transform="translate(-5.09 -4.46)"/><path class="cls-1" d="M348.05,299,344,320.46a1.05,1.05,0,0,0,.43,1.26,6.2,6.2,0,0,0,2.2.58,1.11,1.11,0,0,1,.4.18.63.63,0,0,1,.2.54,3,3,0,0,1,0,.3c0,.12,0,.25-.06.38-.79-.08-1.65-.14-2.55-.18s-1.78-.06-2.64-.06c-.56,0-1.29,0-2.18.06s-1.7.1-2.41.18c0-.13-.05-.25-.06-.36a2.41,2.41,0,0,1,0-.28.62.62,0,0,1,.56-.64,6,6,0,0,0,1.82-.56,1.58,1.58,0,0,0,.82-1.12l4-20.53A1,1,0,0,0,344,299a3.79,3.79,0,0,0-1.5-.48c-.45-.05-.68-.26-.68-.64a2.78,2.78,0,0,1,.13-.68c.79.08,1.6.14,2.41.18s1.56.06,2.26.06h3.52a11.21,11.21,0,0,1,3.44.48,7.63,7.63,0,0,1,2.5,1.32,5.57,5.57,0,0,1,1.54,2,5.93,5.93,0,0,1,.52,2.46,8.3,8.3,0,0,1-.68,3.36,7.61,7.61,0,0,1-2,2.69,9.7,9.7,0,0,1-3.16,1.8,12.47,12.47,0,0,1-4.17.66h-1.72a2.52,2.52,0,0,1,.42-1.18,1.07,1.07,0,0,1,.9-.38,7,7,0,0,0,4.82-1.68q1.69-1.6,1.7-5.11A6.33,6.33,0,0,0,354,302a4.17,4.17,0,0,0-.84-1.56,4.07,4.07,0,0,0-1.5-1.08,5.61,5.61,0,0,0-2.23-.4Z" transform="translate(-5.09 -4.46)"/><path class="cls-1" d="M368.07,316.82h-.16a21.32,21.32,0,0,1-2,3.32,13.51,13.51,0,0,1-2.06,2.2,7.49,7.49,0,0,1-2,1.22,5.18,5.18,0,0,1-1.86.38,3.56,3.56,0,0,1-1.13-.18,2.31,2.31,0,0,1-1-.62,3,3,0,0,1-.66-1.2A6.53,6.53,0,0,1,357,320a15.4,15.4,0,0,1,3.83-10.49,12.17,12.17,0,0,1,3.54-2.78,7.94,7.94,0,0,1,3.54-1q1.28,0,2.46.12a24.67,24.67,0,0,1,2.65.44l-2.75,13.86a3.49,3.49,0,0,0-.08.72c0,.34.14.52.44.52a1.37,1.37,0,0,0,.58-.14c.2-.09.4-.2.6-.32l.55-.32a1,1,0,0,1,.42-.14c.26,0,.45.26.56.8-.48.35-1,.67-1.5,1s-1,.58-1.5.82a10.75,10.75,0,0,1-1.36.58,3.36,3.36,0,0,1-1,.22,1.75,1.75,0,0,1-.79-.18.78.78,0,0,1-.37-.78,3.35,3.35,0,0,1,0-.46,3.63,3.63,0,0,1,.12-.54Zm1.44-9.07a7.66,7.66,0,0,0-1.06-.26,6.54,6.54,0,0,0-1.1-.1,5.15,5.15,0,0,0-2.88.84,7.25,7.25,0,0,0-2.19,2.36,12.64,12.64,0,0,0-1.42,3.6,19.23,19.23,0,0,0-.5,4.51,4.34,4.34,0,0,0,.36,2.06,1.1,1.1,0,0,0,1,.62,2.87,2.87,0,0,0,1.72-.72,9.75,9.75,0,0,0,1.78-1.88,22.84,22.84,0,0,0,1.65-2.62,23.24,23.24,0,0,0,1.38-3,24.2,24.2,0,0,0,.92-2.94A10.85,10.85,0,0,0,369.5,307.76Z" transform="translate(-5.09 -4.46)"/><path class="cls-1" d="M380.45,318.34a9.72,9.72,0,0,0-.24,1.8,1.07,1.07,0,0,0,.38.92,1.61,1.61,0,0,0,1,.28,3.17,3.17,0,0,0,1.84-.7,10.37,10.37,0,0,0,1.9-1.86,21.11,21.11,0,0,0,1.8-2.64,25.82,25.82,0,0,0,1.5-3,22.42,22.42,0,0,0,1-3,11.05,11.05,0,0,0,.38-2.66,5.43,5.43,0,0,0-.12-1.08,28.36,28.36,0,0,0,3.15-.6.57.57,0,0,1,.32.48,3,3,0,0,1,0,.34c0,.17-.06.32-.08.42l-2.72,13.74c-.08.48.09.72.52.72a1.28,1.28,0,0,0,.54-.14l.58-.28.54-.28a1,1,0,0,1,.42-.14c.24,0,.4.24.48.72-.48.35-1,.68-1.52,1s-1,.6-1.52.84a10.12,10.12,0,0,1-1.34.56,3.44,3.44,0,0,1-1,.2,1.68,1.68,0,0,1-.76-.18c-.24-.12-.36-.39-.36-.82q0-.08,0-.36a2.62,2.62,0,0,1,.1-.52l1.16-5.51h-.16A18.59,18.59,0,0,1,384,322.2a6.84,6.84,0,0,1-4.27,1.74,2.9,2.9,0,0,1-2-.64,2.43,2.43,0,0,1-.72-1.92,9.69,9.69,0,0,1,.08-1.12c.06-.43.12-.84.2-1.24l2-9.19a1.74,1.74,0,0,1,0-.28,1.81,1.81,0,0,0,0-.28q.09-.68-.36-.68a1.5,1.5,0,0,0-.54.14l-.7.28-.66.28a1.18,1.18,0,0,1-.46.14.35.35,0,0,1-.32-.24,2.59,2.59,0,0,1-.2-.52c.45-.27,1-.57,1.62-.92s1.24-.66,1.83-.94,1.14-.52,1.62-.72a3.34,3.34,0,0,1,1-.3c.53,0,.8.23.8.68a2.13,2.13,0,0,1,0,.4l-.08.4Z" transform="translate(-5.09 -4.46)"/><path class="cls-1" d="M401.34,298.69a1.44,1.44,0,0,0-.06-.4.31.31,0,0,0-.34-.2,2.8,2.8,0,0,0-.42.06l-.64.12-.62.1-.4,0c-.35,0-.52-.28-.52-.84q1.8-.48,3.32-1c1-.33,2-.7,3-1.1a1.05,1.05,0,0,1,.4.38,1,1,0,0,1,.08.38,2.77,2.77,0,0,1-.08.64l-4.56,23.29c0,.13-.05.29-.08.46a2.28,2.28,0,0,0,0,.34.42.42,0,0,0,.48.48,1.33,1.33,0,0,0,.58-.14,6.08,6.08,0,0,0,.6-.32l.54-.32a.84.84,0,0,1,.4-.14c.26,0,.45.26.56.8a14.86,14.86,0,0,1-1.46,1c-.52.31-1,.58-1.5.82a11.15,11.15,0,0,1-1.36.58,3.36,3.36,0,0,1-1,.22,2,2,0,0,1-.84-.18c-.27-.12-.4-.41-.4-.86a3,3,0,0,1,0-.42,2.81,2.81,0,0,1,.08-.42l3.76-19.29q.24-1.16.36-2.3A17.44,17.44,0,0,0,401.34,298.69Z" transform="translate(-5.09 -4.46)"/><path class="cls-1" d="M417.12,316.82H417a22.32,22.32,0,0,1-2,3.32,13.25,13.25,0,0,1-2.06,2.2,7.3,7.3,0,0,1-2,1.22,5.12,5.12,0,0,1-1.85.38,3.58,3.58,0,0,1-1.14-.18,2.31,2.31,0,0,1-1-.62,3.11,3.11,0,0,1-.66-1.2A6.53,6.53,0,0,1,406,320a15.44,15.44,0,0,1,3.84-10.49,12.17,12.17,0,0,1,3.54-2.78,7.9,7.9,0,0,1,3.53-1,22.3,22.3,0,0,1,5.12.56l-2.76,13.86a3.93,3.93,0,0,0-.08.72c0,.34.14.52.43.52a1.33,1.33,0,0,0,.58-.14,6.08,6.08,0,0,0,.6-.32l.56-.32a1,1,0,0,1,.42-.14c.26,0,.45.26.55.8q-.72.52-1.49,1c-.52.31-1,.58-1.5.82a11.15,11.15,0,0,1-1.36.58,3.36,3.36,0,0,1-1,.22,1.76,1.76,0,0,1-.8-.18.78.78,0,0,1-.36-.78,3.25,3.25,0,0,1,0-.46A4.65,4.65,0,0,1,416,322Zm1.44-9.07a7.45,7.45,0,0,0-1.06-.26,6.48,6.48,0,0,0-1.1-.1,5.13,5.13,0,0,0-2.87.84,7.26,7.26,0,0,0-2.2,2.36,12.64,12.64,0,0,0-1.42,3.6,19.23,19.23,0,0,0-.5,4.51,4.34,4.34,0,0,0,.36,2.06,1.11,1.11,0,0,0,1,.62,2.86,2.86,0,0,0,1.71-.72,9.75,9.75,0,0,0,1.78-1.88,22.85,22.85,0,0,0,1.66-2.62,25.1,25.1,0,0,0,1.38-3,24.13,24.13,0,0,0,.91-2.94A10.85,10.85,0,0,0,418.55,307.76Z" transform="translate(-5.09 -4.46)"/><path class="cls-1" d="M445.73,323.94a15.29,15.29,0,0,1-5.38-.84,9.62,9.62,0,0,1-3.61-2.3,8.77,8.77,0,0,1-2-3.39,13.17,13.17,0,0,1-.64-4.17,18.45,18.45,0,0,1,1-5.81,16,16,0,0,1,2.88-5.21,14.5,14.5,0,0,1,4.81-3.76,15.14,15.14,0,0,1,6.81-1.44,22.85,22.85,0,0,1,3.85.32,25.53,25.53,0,0,1,3.57.88c-.08.77-.12,1.53-.12,2.28,0,.53,0,1.07.06,1.6s.08,1.07.14,1.6a1.22,1.22,0,0,1-.72.2c-.5,0-.78-.2-.8-.6a4.89,4.89,0,0,0-2-3.68,7.74,7.74,0,0,0-4.27-1,9.66,9.66,0,0,0-4.72,1.14,10.9,10.9,0,0,0-3.54,3.1,14.2,14.2,0,0,0-2.22,4.57,19.81,19.81,0,0,0-.76,5.53,12.16,12.16,0,0,0,.58,3.9,8.86,8.86,0,0,0,1.61,3,7.18,7.18,0,0,0,2.54,1.9,8.11,8.11,0,0,0,3.37.68,7.27,7.27,0,0,0,4.29-1.12,8.9,8.9,0,0,0,2.74-3.59,1,1,0,0,1,1-.64,1.42,1.42,0,0,1,.5.1,1.14,1.14,0,0,1,.34.18,21.78,21.78,0,0,0-1.06,2.69c-.31.95-.62,2-.94,3.18-.59.1-1.21.2-1.88.3l-2,.26c-.66.08-1.29.14-1.88.18S446.15,323.94,445.73,323.94Z" transform="translate(-5.09 -4.46)"/><path class="cls-1" d="M468.73,316.82h-.16a22.32,22.32,0,0,1-2,3.32,13.25,13.25,0,0,1-2.06,2.2,7.3,7.3,0,0,1-2,1.22,5.12,5.12,0,0,1-1.85.38,3.58,3.58,0,0,1-1.14-.18,2.31,2.31,0,0,1-1-.62,3.11,3.11,0,0,1-.66-1.2,6.53,6.53,0,0,1-.24-1.92,15.44,15.44,0,0,1,3.84-10.49,12.17,12.17,0,0,1,3.54-2.78,7.9,7.9,0,0,1,3.53-1,22.3,22.3,0,0,1,5.12.56l-2.76,13.86a3.93,3.93,0,0,0-.08.72c0,.34.14.52.43.52a1.33,1.33,0,0,0,.58-.14,6.08,6.08,0,0,0,.6-.32l.56-.32a1,1,0,0,1,.42-.14c.26,0,.45.26.55.8q-.72.52-1.49,1c-.52.31-1,.58-1.5.82a11.15,11.15,0,0,1-1.36.58,3.36,3.36,0,0,1-1,.22,1.76,1.76,0,0,1-.8-.18.78.78,0,0,1-.36-.78,3.25,3.25,0,0,1,0-.46,4.65,4.65,0,0,1,.12-.54Zm1.44-9.07a7.45,7.45,0,0,0-1.06-.26,6.48,6.48,0,0,0-1.1-.1,5.13,5.13,0,0,0-2.87.84,7.26,7.26,0,0,0-2.2,2.36,12.64,12.64,0,0,0-1.42,3.6,19.23,19.23,0,0,0-.5,4.51,4.34,4.34,0,0,0,.36,2.06,1.11,1.11,0,0,0,1,.62,2.86,2.86,0,0,0,1.71-.72,9.75,9.75,0,0,0,1.78-1.88,22.85,22.85,0,0,0,1.66-2.62,25.1,25.1,0,0,0,1.38-3,24.13,24.13,0,0,0,.91-2.94A10.85,10.85,0,0,0,470.17,307.76Z" transform="translate(-5.09 -4.46)"/><path class="cls-1" d="M487.82,309.59a2.67,2.67,0,0,0-1.46.56,8.45,8.45,0,0,0-1.64,1.52,17.37,17.37,0,0,0-1.59,2.22,18.78,18.78,0,0,0-1.38,2.68,19.13,19.13,0,0,0-1,2.9,12,12,0,0,0-.36,2.83,4.68,4.68,0,0,0,.12,1.08c-.54.05-1.07.13-1.62.24s-1.08.22-1.61.36c-.24-.14-.36-.29-.36-.48a2.49,2.49,0,0,1,.08-.56,4.32,4.32,0,0,1,.16-.52c.05-.13.1-.29.16-.48a6.92,6.92,0,0,0,.16-.8l1.76-9.07c.19-1,.31-1.74.36-2.12s.09-.64.12-.8q0-.52-.36-.52a1.4,1.4,0,0,0-.46.12c-.2.08-.41.17-.64.28l-.64.28a1.38,1.38,0,0,1-.45.12.39.39,0,0,1-.34-.24,2,2,0,0,1-.22-.56c.48-.29,1-.61,1.7-.94s1.28-.64,1.88-.92,1.13-.51,1.59-.7a3.48,3.48,0,0,1,.9-.28.8.8,0,0,1,.48.14.52.52,0,0,1,.2.46c0,.05,0,.15,0,.28s0,.27-.06.4l-1.28,6h.16a25,25,0,0,1,3.93-5.55,5.15,5.15,0,0,1,3.49-1.72,1.8,1.8,0,0,1,.66.12,1.25,1.25,0,0,1,.42.24c-.24.61-.45,1.25-.64,1.92a15.58,15.58,0,0,0-.44,2.23H489A1.26,1.26,0,0,0,487.82,309.59Z" transform="translate(-5.09 -4.46)"/><path class="cls-1" d="M502.21,309.59a2.68,2.68,0,0,0-1.46.56,8.43,8.43,0,0,0-1.63,1.52,17.38,17.38,0,0,0-1.6,2.22,20.18,20.18,0,0,0-1.38,2.68,19.13,19.13,0,0,0-1,2.9,12,12,0,0,0-.36,2.83,5.05,5.05,0,0,0,.12,1.08c-.53.05-1.07.13-1.61.24s-1.09.22-1.62.36c-.24-.14-.36-.29-.36-.48a2.21,2.21,0,0,1,.08-.56,4.45,4.45,0,0,1,.16-.52,4.76,4.76,0,0,0,.16-.48,6.69,6.69,0,0,0,.16-.8l1.76-9.07c.18-1,.3-1.74.36-2.12s.09-.64.12-.8q0-.52-.36-.52a1.37,1.37,0,0,0-.46.12l-.64.28-.64.28a1.4,1.4,0,0,1-.46.12.41.41,0,0,1-.34-.24,2.15,2.15,0,0,1-.22-.56q.72-.44,1.7-.94c.65-.33,1.27-.64,1.87-.92s1.13-.51,1.6-.7a3.41,3.41,0,0,1,.9-.28.83.83,0,0,1,.48.14.52.52,0,0,1,.2.46c0,.05,0,.15,0,.28s0,.27-.06.4l-1.28,6h.16a25,25,0,0,1,3.93-5.55,5.15,5.15,0,0,1,3.5-1.72,1.75,1.75,0,0,1,.66.12,1.37,1.37,0,0,1,.42.24q-.36.92-.64,1.92a16.54,16.54,0,0,0-.43,2.23h-.64A1.25,1.25,0,0,0,502.21,309.59Z" transform="translate(-5.09 -4.46)"/><path class="cls-1" d="M515.43,316.82h-.16a22.32,22.32,0,0,1-2,3.32,13.25,13.25,0,0,1-2.06,2.2,7.3,7.3,0,0,1-2,1.22,5.12,5.12,0,0,1-1.85.38,3.58,3.58,0,0,1-1.14-.18,2.31,2.31,0,0,1-1-.62,3.11,3.11,0,0,1-.66-1.2,6.53,6.53,0,0,1-.24-1.92,15.44,15.44,0,0,1,3.84-10.49,12.17,12.17,0,0,1,3.54-2.78,7.9,7.9,0,0,1,3.53-1,22.3,22.3,0,0,1,5.12.56l-2.76,13.86a3.93,3.93,0,0,0-.08.72c0,.34.14.52.43.52a1.33,1.33,0,0,0,.58-.14,6.08,6.08,0,0,0,.6-.32l.56-.32a1,1,0,0,1,.42-.14c.26,0,.45.26.55.8q-.72.52-1.49,1c-.52.31-1,.58-1.5.82a11.15,11.15,0,0,1-1.36.58,3.36,3.36,0,0,1-1,.22,1.76,1.76,0,0,1-.8-.18.78.78,0,0,1-.36-.78,3.25,3.25,0,0,1,0-.46,4.65,4.65,0,0,1,.12-.54Zm1.44-9.07a7.45,7.45,0,0,0-1.06-.26,6.48,6.48,0,0,0-1.1-.1,5.13,5.13,0,0,0-2.87.84,7.26,7.26,0,0,0-2.2,2.36,12.64,12.64,0,0,0-1.42,3.6,19.23,19.23,0,0,0-.5,4.51,4.34,4.34,0,0,0,.36,2.06,1.11,1.11,0,0,0,1,.62,2.86,2.86,0,0,0,1.71-.72,9.75,9.75,0,0,0,1.78-1.88,22.85,22.85,0,0,0,1.66-2.62,25.1,25.1,0,0,0,1.38-3,24.13,24.13,0,0,0,.91-2.94A10.85,10.85,0,0,0,516.87,307.76Z" transform="translate(-5.09 -4.46)"/><path class="cls-1" d="M536.72,311.39a8.77,8.77,0,0,0,.24-1.8,1,1,0,0,0-1.12-1.16,2.66,2.66,0,0,0-1.48.66,13.42,13.42,0,0,0-1.84,1.72,27.25,27.25,0,0,0-1.9,2.38,24.22,24.22,0,0,0-1.66,2.68q-.36.68-.7,1.5c-.23.55-.42,1.11-.6,1.68a14.3,14.3,0,0,0-.4,1.7,9.37,9.37,0,0,0-.14,1.56,4.68,4.68,0,0,0,.12,1.08,20.08,20.08,0,0,0-3.16.6.56.56,0,0,1-.32-.48,3.07,3.07,0,0,1,0-.34,3.18,3.18,0,0,1,.08-.42q.92-4.63,1.44-7.31t.78-4.06q.26-1.38.32-1.8t.06-.5c0-.32-.11-.48-.32-.48a1.31,1.31,0,0,0-.48.14L525,309l-.66.28a1.38,1.38,0,0,1-.48.14.39.39,0,0,1-.34-.24,2,2,0,0,1-.22-.56c.48-.29,1-.61,1.7-.94s1.28-.64,1.89-.92,1.14-.51,1.59-.7a3.27,3.27,0,0,1,.88-.28.8.8,0,0,1,.48.14.52.52,0,0,1,.2.46,2.92,2.92,0,0,1,0,.3c0,.12,0,.25-.06.38l-1.44,7h.16q1-1.76,2.16-3.27a20.62,20.62,0,0,1,2.25-2.62,10.34,10.34,0,0,1,2.29-1.72,5,5,0,0,1,2.35-.62,2.65,2.65,0,0,1,1.78.56,2.3,2.3,0,0,1,.66,1.84,8.61,8.61,0,0,1-.08,1.12c-.05.43-.12.85-.2,1.28l-2,9.59a4.91,4.91,0,0,0-.12.76c0,.34.16.52.48.52a1.4,1.4,0,0,0,.56-.14,5.19,5.19,0,0,0,.62-.32l.54-.32a.84.84,0,0,1,.4-.14c.26,0,.45.26.56.8-.48.35-1,.67-1.47,1s-1,.58-1.48.82a11.71,11.71,0,0,1-1.37.58,3.29,3.29,0,0,1-1,.22,1.88,1.88,0,0,1-.82-.18c-.25-.12-.38-.41-.38-.86a3,3,0,0,1,0-.38c0-.17.06-.32.08-.46Z" transform="translate(-5.09 -4.46)"/><path class="cls-1" d="M545.91,320.9a10.61,10.61,0,0,1,1.59-.44,8.65,8.65,0,0,1,1.48-.12,7.88,7.88,0,0,1,2.07.26,8.29,8.29,0,0,0,2.16.26,1.28,1.28,0,0,0,1-.48,4.79,4.79,0,0,0,.74-1.2,1.4,1.4,0,0,1,.26-.46.58.58,0,0,1,.54-.18l.72.08q-.36,1.16-.62,2.34t-.38,2.1l-.32.32a4.3,4.3,0,0,1-1,.28,6.19,6.19,0,0,1-1,.08,9.25,9.25,0,0,1-1.82-.18l-1.8-.38-1.82-.38a9.33,9.33,0,0,0-1.8-.18,5.1,5.1,0,0,0-1.34.18,3.42,3.42,0,0,0-1.22.62h-.84c-.16-.21-.23-.37-.2-.48a1.32,1.32,0,0,1,.28-.44l11.62-13.58a5.77,5.77,0,0,1-2.6.56,6.73,6.73,0,0,1-1.38-.12l-1.08-.24-1-.24a5,5,0,0,0-1.14-.12c-.43,0-.81.39-1.16,1.16a1.94,1.94,0,0,1-.26.5.56.56,0,0,1-.62.18l-.64-.08a29.69,29.69,0,0,0,.88-4l.24-.24a5.24,5.24,0,0,1,1.59-.24,8,8,0,0,1,1.68.18l1.68.38,1.68.38a8,8,0,0,0,1.68.18,7,7,0,0,0,1.72-.2,5.32,5.32,0,0,0,1.59-.72h.64a.86.86,0,0,1,.22.42.77.77,0,0,1-.26.5Z" transform="translate(-5.09 -4.46)"/><path class="cls-1" d="M569.92,316.82h-.16a22.32,22.32,0,0,1-2,3.32,13.25,13.25,0,0,1-2.06,2.2,7.3,7.3,0,0,1-2,1.22,5.12,5.12,0,0,1-1.85.38,3.58,3.58,0,0,1-1.14-.18,2.31,2.31,0,0,1-1-.62,3.11,3.11,0,0,1-.66-1.2,6.53,6.53,0,0,1-.24-1.92,15.44,15.44,0,0,1,3.84-10.49,12.17,12.17,0,0,1,3.54-2.78,7.9,7.9,0,0,1,3.53-1,22.3,22.3,0,0,1,5.12.56l-2.76,13.86a3.93,3.93,0,0,0-.08.72c0,.34.14.52.43.52a1.33,1.33,0,0,0,.58-.14,6.08,6.08,0,0,0,.6-.32l.56-.32a1,1,0,0,1,.42-.14c.26,0,.45.26.55.8q-.72.52-1.49,1c-.52.31-1,.58-1.5.82a11.15,11.15,0,0,1-1.36.58,3.36,3.36,0,0,1-1,.22,1.76,1.76,0,0,1-.8-.18.78.78,0,0,1-.36-.78,3.25,3.25,0,0,1,0-.46,4.65,4.65,0,0,1,.12-.54Zm1.44-9.07a7.45,7.45,0,0,0-1.06-.26,6.48,6.48,0,0,0-1.1-.1,5.13,5.13,0,0,0-2.87.84,7.26,7.26,0,0,0-2.2,2.36,12.64,12.64,0,0,0-1.42,3.6,19.23,19.23,0,0,0-.5,4.51,4.34,4.34,0,0,0,.36,2.06,1.11,1.11,0,0,0,1,.62,2.86,2.86,0,0,0,1.71-.72,9.75,9.75,0,0,0,1.78-1.88,22.85,22.85,0,0,0,1.66-2.62,25.1,25.1,0,0,0,1.38-3,24.13,24.13,0,0,0,.91-2.94A10.85,10.85,0,0,0,571.35,307.76Z" transform="translate(-5.09 -4.46)"/><path class="cls-1" d="M198,7.22V5h24.5q6.82,0,13.47-.24t13.47-.24a74.27,74.27,0,0,1,13.39,1.3,43.36,43.36,0,0,1,12.9,4.46,28.13,28.13,0,0,1,9.65,8.52q3.81,5.35,3.81,13.47a20.38,20.38,0,0,1-2.92,11.12,24,24,0,0,1-7.55,7.55,37.57,37.57,0,0,1-10.31,4.46,64.24,64.24,0,0,1-11.2,2v.81q7.95,1.46,14.2,2.92a34.19,34.19,0,0,1,10.79,4.38,20.7,20.7,0,0,1,7.22,8.11q2.68,5.2,3.33,14,.81,10.22,1.3,16.39a58.37,58.37,0,0,0,1.38,9.57q.89,3.41,2.43,4.54a7.43,7.43,0,0,0,4.46,1.14,7.79,7.79,0,0,0,5.36-1.87q2.1-1.86,3.73-3.49L313,115.3q-1.62,1.62-3.16,3a15.17,15.17,0,0,1-3.57,2.35,20.64,20.64,0,0,1-4.95,1.54,39.24,39.24,0,0,1-7.31.57q-8.93,0-14-2.84a19.25,19.25,0,0,1-7.46-7.06,23.49,23.49,0,0,1-3-9.17q-.57-4.95-.73-9.33-.33-6.65-.89-12.9a36.15,36.15,0,0,0-2.68-11.12A17.94,17.94,0,0,0,259,62.56q-4.22-2.92-11.85-2.92H236.44v58.58h14.93v2.27H198v-2.27h14.93V7.22Zm45.12,50.14q7.3,0,11.52-1.95a14.36,14.36,0,0,0,6.33-5.27,18.55,18.55,0,0,0,2.68-7.55,64.46,64.46,0,0,0,.57-8.6,66.49,66.49,0,0,0-1-12.25A22.19,22.19,0,0,0,260,13.31a13.59,13.59,0,0,0-6.25-4.95,27.09,27.09,0,0,0-10.14-1.62c-1.19,0-2.38.06-3.57.16l-3.57.32V57.37Z" transform="translate(-5.09 -4.46)"/><path class="cls-1" d="M445,5V32.7h-2.11a57.1,57.1,0,0,0-2.76-7.06,35.06,35.06,0,0,0-5.44-8.36,31.72,31.72,0,0,0-9-7.06,27.85,27.85,0,0,0-13.47-3h-25.8V57.37h9.09a26.72,26.72,0,0,0,10.14-1.7,18.19,18.19,0,0,0,6.9-4.87A26.46,26.46,0,0,0,417,43.17a58.88,58.88,0,0,0,2.92-10h2.11V83.66H420a94.25,94.25,0,0,0-2.68-9.09,27.07,27.07,0,0,0-4.14-7.71,19,19,0,0,0-6.41-5.27,20.75,20.75,0,0,0-9.49-1.95H386.38v58.58H413a34.49,34.49,0,0,0,13.47-2.52,33.43,33.43,0,0,0,10.63-7.06A40.21,40.21,0,0,0,444.8,98,57.67,57.67,0,0,0,449.5,85h2.11v35.54H347.92v-2.27h14.93V7.22H347.92V5Z" transform="translate(-5.09 -4.46)"/><path class="cls-1" d="M550.44,118.22v2.27H497v-2.27H512V7.22H497V5H512q8.27,0,16.55-.24t16.55-.24a110.67,110.67,0,0,1,15.74,1.22,55.48,55.48,0,0,1,15.58,4.54,33.05,33.05,0,0,1,11.93,9.25q4.78,5.93,4.79,15.33A24.39,24.39,0,0,1,590,46.74a27.75,27.75,0,0,1-9.41,9.74A52.75,52.75,0,0,1,564.72,63a92.38,92.38,0,0,1-22.56,2.43h-6.66v52.74Zm-9.9-55q13.8,0,20-6.25t6.17-21.18q0-14.12-5.36-21.58T541.84,6.74q-1.79,0-3.4.16t-2.93.32v56Z" transform="translate(-5.09 -4.46)"/><line class="cls-2" y1="169.66" x2="780.91" y2="169.66"/></svg>